<svg xmlns="http://www.w3.org/2000/svg" xmlns:xlink="http://www.w3.org/1999/xlink" xmlns:inkscape="http://www.inkscape.org/namespaces/inkscape" version="1.1" width="595.32" height="841.92" viewBox="0 0 595.32 841.92">
<defs>
<clipPath id="clip_1">
<path transform="matrix(1,0,0,-1,0,841.92)" d="M.000008871 0H595.32V841.92H.000008871Z" clip-rule="evenodd"/>
</clipPath>
<clipPath id="clip_2">
<path transform="matrix(1,0,0,-1,0,841.92)" d="M.000008871 0H595.32V841.92H.000008871Z" clip-rule="evenodd"/>
</clipPath>
<clipPath id="clip_3">
<path transform="matrix(1,0,0,-1,0,841.92)" d="M.000008871 0H595.32V841.92H.000008871Z" clip-rule="evenodd"/>
</clipPath>
<clipPath id="clip_4">
<path transform="matrix(1,0,0,-1,0,841.92)" d="M.000008871 0H595.32V841.92H.000008871Z" clip-rule="evenodd"/>
</clipPath>
<clipPath id="clip_5">
<path transform="matrix(1,0,0,-1,0,841.92)" d="M.000008871 0H595.32V841.92H.000008871Z" clip-rule="evenodd"/>
</clipPath>
<clipPath id="clip_6">
<path transform="matrix(1,0,0,-1,0,841.92)" d="M.000008871 0H595.32V841.92H.000008871Z" clip-rule="evenodd"/>
</clipPath>
<clipPath id="clip_7">
<path transform="matrix(1,0,0,-1,0,841.92)" d="M.000008871 0H595.32V841.92H.000008871Z" clip-rule="evenodd"/>
</clipPath>
<clipPath id="clip_8">
<path transform="matrix(1,0,0,-1,0,841.92)" d="M.000008871 0H595.32V841.92H.000008871Z" clip-rule="evenodd"/>
</clipPath>
<clipPath id="clip_9">
<path transform="matrix(1,0,0,-1,0,841.92)" d="M.000008871 0H595.32V841.92H.000008871Z" clip-rule="evenodd"/>
</clipPath>
<clipPath id="clip_10">
<path transform="matrix(1,0,0,-1,0,841.92)" d="M.000008871 0H595.32V841.92H.000008871Z" clip-rule="evenodd"/>
</clipPath>
<clipPath id="clip_11">
<path transform="matrix(1,0,0,-1,0,841.92)" d="M.000008871 0H595.32V841.92H.000008871Z" clip-rule="evenodd"/>
</clipPath>
<clipPath id="clip_12">
<path transform="matrix(1,0,0,-1,0,841.92)" d="M.000008871 0H595.32V841.92H.000008871Z" clip-rule="evenodd"/>
</clipPath>
<clipPath id="clip_13">
<path transform="matrix(1,0,0,-1,0,841.92)" d="M.000008871 0H595.32V841.92H.000008871Z" clip-rule="evenodd"/>
</clipPath>
<clipPath id="clip_14">
<path transform="matrix(1,0,0,-1,0,841.92)" d="M.000008871 0H595.32V841.92H.000008871Z" clip-rule="evenodd"/>
</clipPath>
<clipPath id="clip_15">
<path transform="matrix(1,0,0,-1,0,841.92)" d="M.000008871 0H595.32V841.92H.000008871Z" clip-rule="evenodd"/>
</clipPath>
<clipPath id="clip_16">
<path transform="matrix(1,0,0,-1,0,841.92)" d="M.000008871 0H595.32V841.92H.000008871Z" clip-rule="evenodd"/>
</clipPath>
<clipPath id="clip_17">
<path transform="matrix(1,0,0,-1,0,841.92)" d="M.000008871 0H595.32V841.92H.000008871Z" clip-rule="evenodd"/>
</clipPath>
<clipPath id="clip_18">
<path transform="matrix(1,0,0,-1,0,841.92)" d="M.000008871 0H595.32V841.92H.000008871Z" clip-rule="evenodd"/>
</clipPath>
<clipPath id="clip_19">
<path transform="matrix(1,0,0,-1,0,841.92)" d="M.000008871 0H595.32V841.92H.000008871Z" clip-rule="evenodd"/>
</clipPath>
<clipPath id="clip_20">
<path transform="matrix(1,0,0,-1,0,841.92)" d="M.000008871 0H595.32V841.92H.000008871Z" clip-rule="evenodd"/>
</clipPath>
<clipPath id="clip_21">
<path transform="matrix(1,0,0,-1,0,841.92)" d="M.000008871 0H595.32V841.92H.000008871Z" clip-rule="evenodd"/>
</clipPath>
<clipPath id="clip_22">
<path transform="matrix(1,0,0,-1,0,841.92)" d="M.000008871 0H595.32V841.92H.000008871Z" clip-rule="evenodd"/>
</clipPath>
<clipPath id="clip_23">
<path transform="matrix(1,0,0,-1,0,841.92)" d="M.000008871 0H595.32V841.92H.000008871Z" clip-rule="evenodd"/>
</clipPath>
<clipPath id="clip_24">
<path transform="matrix(1,0,0,-1,0,841.92)" d="M.000008871 0H595.32V841.92H.000008871Z" clip-rule="evenodd"/>
</clipPath>
<clipPath id="clip_25">
<path transform="matrix(1,0,0,-1,0,841.92)" d="M.000008871 0H595.32V841.92H.000008871Z" clip-rule="evenodd"/>
</clipPath>
<clipPath id="clip_26">
<path transform="matrix(1,0,0,-1,0,841.92)" d="M.000008871 0H595.32V841.92H.000008871Z" clip-rule="evenodd"/>
</clipPath>
<clipPath id="clip_27">
<path transform="matrix(1,0,0,-1,0,841.92)" d="M.000008871 0H595.32V841.92H.000008871Z" clip-rule="evenodd"/>
</clipPath>
<clipPath id="clip_28">
<path transform="matrix(1,0,0,-1,0,841.92)" d="M.000008871 0H595.32V841.92H.000008871Z" clip-rule="evenodd"/>
</clipPath>
<clipPath id="clip_29">
<path transform="matrix(1,0,0,-1,0,841.92)" d="M.000008871 0H595.32V841.92H.000008871Z" clip-rule="evenodd"/>
</clipPath>
<clipPath id="clip_30">
<path transform="matrix(1,0,0,-1,0,841.92)" d="M.000008871 0H595.32V841.92H.000008871Z" clip-rule="evenodd"/>
</clipPath>
<clipPath id="clip_31">
<path transform="matrix(1,0,0,-1,0,841.92)" d="M.000008871 0H595.32V841.92H.000008871Z" clip-rule="evenodd"/>
</clipPath>
<clipPath id="clip_32">
<path transform="matrix(1,0,0,-1,0,841.92)" d="M.000008871 0H595.32V841.92H.000008871Z" clip-rule="evenodd"/>
</clipPath>
<clipPath id="clip_33">
<path transform="matrix(1,0,0,-1,0,841.92)" d="M.000008871 0H595.32V841.92H.000008871Z" clip-rule="evenodd"/>
</clipPath>
<clipPath id="clip_34">
<path transform="matrix(1,0,0,-1,0,841.92)" d="M.000008871 0H595.32V841.92H.000008871Z" clip-rule="evenodd"/>
</clipPath>
<clipPath id="clip_35">
<path transform="matrix(1,0,0,-1,0,841.92)" d="M.000008871 0H595.32V841.92H.000008871Z" clip-rule="evenodd"/>
</clipPath>
<clipPath id="clip_36">
<path transform="matrix(1,0,0,-1,0,841.92)" d="M143.54 810H193.124V822.6H143.54Z" clip-rule="evenodd"/>
</clipPath>
<clipPath id="clip_37">
<path transform="matrix(1,0,0,-1,0,841.92)" d="M143.54 810H193.124V822.6H143.54Z" clip-rule="evenodd"/>
</clipPath>
<clipPath id="clip_38">
<path transform="matrix(1,0,0,-1,0,841.92)" d="M143.54 810H193.124V822.6H143.54Z" clip-rule="evenodd"/>
</clipPath>
<clipPath id="clip_39">
<path transform="matrix(1,0,0,-1,0,841.92)" d="M114.74 750.46H224.07999V777.004H114.74Z" clip-rule="evenodd"/>
</clipPath>
<clipPath id="clip_40">
<path transform="matrix(1,0,0,-1,0,841.92)" d="M114.74 750.46H224.07999V777.004H114.74Z" clip-rule="evenodd"/>
</clipPath>
<clipPath id="clip_41">
<path transform="matrix(1,0,0,-1,0,841.92)" d="M114.74 750.46H224.07999V777.004H114.74Z" clip-rule="evenodd"/>
</clipPath>
<clipPath id="clip_42">
<path transform="matrix(1,0,0,-1,0,841.92)" d="M114.74 750.46H224.07999V777.004H114.74Z" clip-rule="evenodd"/>
</clipPath>
<clipPath id="clip_43">
<path transform="matrix(1,0,0,-1,0,841.92)" d="M46.08 692.86H194.57V706.3H46.08Z" clip-rule="evenodd"/>
</clipPath>
<clipPath id="clip_44">
<path transform="matrix(1,0,0,-1,0,841.92)" d="M46.08 692.86H194.57V706.3H46.08Z" clip-rule="evenodd"/>
</clipPath>
<clipPath id="clip_45">
<path transform="matrix(1,0,0,-1,0,841.92)" d="M46.08 692.86H194.57V706.3H46.08Z" clip-rule="evenodd"/>
</clipPath>
<clipPath id="clip_46">
<path transform="matrix(1,0,0,-1,0,841.92)" d="M39.36 619.9H198.89V633.34H39.36Z" clip-rule="evenodd"/>
</clipPath>
<clipPath id="clip_47">
<path transform="matrix(1,0,0,-1,0,841.92)" d="M39.36 619.9H198.89V633.34H39.36Z" clip-rule="evenodd"/>
</clipPath>
<clipPath id="clip_48">
<path transform="matrix(1,0,0,-1,0,841.92)" d="M39.36 619.9H198.89V633.34H39.36Z" clip-rule="evenodd"/>
</clipPath>
<clipPath id="clip_49">
<path transform="matrix(1,0,0,-1,0,841.92)" d="M57 566.11H184.1V594.214H57Z" clip-rule="evenodd"/>
</clipPath>
<clipPath id="clip_50">
<path transform="matrix(1,0,0,-1,0,841.92)" d="M57 566.11H184.1V594.214H57Z" clip-rule="evenodd"/>
</clipPath>
<clipPath id="clip_51">
<path transform="matrix(1,0,0,-1,0,841.92)" d="M57 566.11H184.1V594.214H57Z" clip-rule="evenodd"/>
</clipPath>
<clipPath id="clip_52">
<path transform="matrix(1,0,0,-1,0,841.92)" d="M57 566.11H184.1V594.214H57Z" clip-rule="evenodd"/>
</clipPath>
<clipPath id="clip_53">
<path transform="matrix(1,0,0,-1,0,841.92)" d="M55.32 499.27H184.1V539.23H55.32Z" clip-rule="evenodd"/>
</clipPath>
<clipPath id="clip_54">
<path transform="matrix(1,0,0,-1,0,841.92)" d="M55.32 499.27H184.1V539.23H55.32Z" clip-rule="evenodd"/>
</clipPath>
<clipPath id="clip_55">
<path transform="matrix(1,0,0,-1,0,841.92)" d="M55.32 499.27H184.1V539.23H55.32Z" clip-rule="evenodd"/>
</clipPath>
<clipPath id="clip_56">
<path transform="matrix(1,0,0,-1,0,841.92)" d="M55.32 499.27H184.1V539.23H55.32Z" clip-rule="evenodd"/>
</clipPath>
<clipPath id="clip_57">
<path transform="matrix(1,0,0,-1,0,841.92)" d="M55.32 499.27H184.1V539.23H55.32Z" clip-rule="evenodd"/>
</clipPath>
<clipPath id="clip_58">
<path transform="matrix(1,0,0,-1,0,841.92)" d="M47.4 445.87H192.17002V473.47H47.4Z" clip-rule="evenodd"/>
</clipPath>
<clipPath id="clip_59">
<path transform="matrix(1,0,0,-1,0,841.92)" d="M47.4 445.87H192.17002V473.47H47.4Z" clip-rule="evenodd"/>
</clipPath>
<clipPath id="clip_60">
<path transform="matrix(1,0,0,-1,0,841.92)" d="M47.4 445.87H192.17002V473.47H47.4Z" clip-rule="evenodd"/>
</clipPath>
<clipPath id="clip_61">
<path transform="matrix(1,0,0,-1,0,841.92)" d="M47.4 445.87H192.17002V473.47H47.4Z" clip-rule="evenodd"/>
</clipPath>
<clipPath id="clip_62">
<path transform="matrix(1,0,0,-1,0,841.92)" d="M28.44 409.87H209.57V422.22999H28.44Z" clip-rule="evenodd"/>
</clipPath>
<clipPath id="clip_63">
<path transform="matrix(1,0,0,-1,0,841.92)" d="M28.44 409.87H209.57V422.22999H28.44Z" clip-rule="evenodd"/>
</clipPath>
<clipPath id="clip_64">
<path transform="matrix(1,0,0,-1,0,841.92)" d="M28.44 409.87H209.57V422.22999H28.44Z" clip-rule="evenodd"/>
</clipPath>
<clipPath id="clip_65">
<path transform="matrix(1,0,0,-1,0,841.92)" d="M38.4 371.21H199.13V383.56999H38.4Z" clip-rule="evenodd"/>
</clipPath>
<clipPath id="clip_66">
<path transform="matrix(1,0,0,-1,0,841.92)" d="M38.4 371.21H199.13V383.56999H38.4Z" clip-rule="evenodd"/>
</clipPath>
<clipPath id="clip_67">
<path transform="matrix(1,0,0,-1,0,841.92)" d="M38.4 371.21H199.13V383.56999H38.4Z" clip-rule="evenodd"/>
</clipPath>
<clipPath id="clip_68">
<path transform="matrix(1,0,0,-1,0,841.92)" d="M38.4 371.21H199.13V383.56999H38.4Z" clip-rule="evenodd"/>
</clipPath>
<clipPath id="clip_69">
<path transform="matrix(1,0,0,-1,0,841.92)" d="M24.12 653.02H76.104007V668.98007H24.12Z" clip-rule="evenodd"/>
</clipPath>
<clipPath id="clip_70">
<path transform="matrix(1,0,0,-1,0,841.92)" d="M24.12 653.02H76.104007V668.98007H24.12Z" clip-rule="evenodd"/>
</clipPath>
<clipPath id="clip_71">
<path transform="matrix(1,0,0,-1,0,841.92)" d="M24.12 653.02H76.104007V668.98007H24.12Z" clip-rule="evenodd"/>
</clipPath>
<clipPath id="clip_72">
<path transform="matrix(1,0,0,-1,0,841.92)" d="M260.33 607.18H369.19V619.42H260.33Z" clip-rule="evenodd"/>
</clipPath>
<clipPath id="clip_73">
<path transform="matrix(1,0,0,-1,0,841.92)" d="M260.33 607.18H369.19V619.42H260.33Z" clip-rule="evenodd"/>
</clipPath>
<clipPath id="clip_74">
<path transform="matrix(1,0,0,-1,0,841.92)" d="M260.33 607.18H369.19V619.42H260.33Z" clip-rule="evenodd"/>
</clipPath>
<clipPath id="clip_75">
<path transform="matrix(1,0,0,-1,0,841.92)" d="M249.17 650.62H301.13V666.58H249.17Z" clip-rule="evenodd"/>
</clipPath>
<clipPath id="clip_76">
<path transform="matrix(1,0,0,-1,0,841.92)" d="M249.17 650.62H301.13V666.58H249.17Z" clip-rule="evenodd"/>
</clipPath>
<clipPath id="clip_77">
<path transform="matrix(1,0,0,-1,0,841.92)" d="M249.17 650.62H301.13V666.58H249.17Z" clip-rule="evenodd"/>
</clipPath>
<clipPath id="clip_78">
<path transform="matrix(1,0,0,-1,0,841.92)" d="M249.17 650.62H301.13V666.58H249.17Z" clip-rule="evenodd"/>
</clipPath>
<clipPath id="clip_79">
<path transform="matrix(1,0,0,-1,0,841.92)" d="M249.17 650.62H301.13V666.58H249.17Z" clip-rule="evenodd"/>
</clipPath>
<clipPath id="clip_80">
<path transform="matrix(1,0,0,-1,0,841.92)" d="M477.22 375.17H574.804V404.354H477.22Z" clip-rule="evenodd"/>
</clipPath>
<clipPath id="clip_81">
<path transform="matrix(1,0,0,-1,0,841.92)" d="M477.22 375.17H574.804V404.354H477.22Z" clip-rule="evenodd"/>
</clipPath>
<clipPath id="clip_82">
<path transform="matrix(1,0,0,-1,0,841.92)" d="M477.22 375.17H574.804V404.354H477.22Z" clip-rule="evenodd"/>
</clipPath>
<clipPath id="clip_83">
<path transform="matrix(1,0,0,-1,0,841.92)" d="M477.22 375.17H574.804V404.354H477.22Z" clip-rule="evenodd"/>
</clipPath>
<clipPath id="clip_84">
<path transform="matrix(1,0,0,-1,0,841.92)" d="M477.82 270.17H575.404V299.33003H477.82Z" clip-rule="evenodd"/>
</clipPath>
<clipPath id="clip_85">
<path transform="matrix(1,0,0,-1,0,841.92)" d="M477.82 270.17H575.404V299.33003H477.82Z" clip-rule="evenodd"/>
</clipPath>
<clipPath id="clip_86">
<path transform="matrix(1,0,0,-1,0,841.92)" d="M477.82 270.17H575.404V299.33003H477.82Z" clip-rule="evenodd"/>
</clipPath>
<clipPath id="clip_87">
<path transform="matrix(1,0,0,-1,0,841.92)" d="M477.82 270.17H575.404V299.33003H477.82Z" clip-rule="evenodd"/>
</clipPath>
<clipPath id="clip_88">
<path transform="matrix(1,0,0,-1,0,841.92)" d="M480.82 200.78H578.404V229.964H480.82Z" clip-rule="evenodd"/>
</clipPath>
<clipPath id="clip_89">
<path transform="matrix(1,0,0,-1,0,841.92)" d="M480.82 200.78H578.404V229.964H480.82Z" clip-rule="evenodd"/>
</clipPath>
<clipPath id="clip_90">
<path transform="matrix(1,0,0,-1,0,841.92)" d="M480.82 200.78H578.404V229.964H480.82Z" clip-rule="evenodd"/>
</clipPath>
<clipPath id="clip_91">
<path transform="matrix(1,0,0,-1,0,841.92)" d="M480.82 200.78H578.404V229.964H480.82Z" clip-rule="evenodd"/>
</clipPath>
<clipPath id="clip_92">
<path transform="matrix(1,0,0,-1,0,841.92)" d="M480.82 200.78H578.404V229.964H480.82Z" clip-rule="evenodd"/>
</clipPath>
<clipPath id="clip_93">
<path transform="matrix(1,0,0,-1,0,841.92)" d="M476.62 437.59H528.58V453.55H476.62Z" clip-rule="evenodd"/>
</clipPath>
<clipPath id="clip_94">
<path transform="matrix(1,0,0,-1,0,841.92)" d="M476.62 437.59H528.58V453.55H476.62Z" clip-rule="evenodd"/>
</clipPath>
<clipPath id="clip_95">
<path transform="matrix(1,0,0,-1,0,841.92)" d="M476.62 437.59H528.58V453.55H476.62Z" clip-rule="evenodd"/>
</clipPath>
<clipPath id="clip_96">
<path transform="matrix(1,0,0,-1,0,841.92)" d="M476.62 437.59H528.58V453.55H476.62Z" clip-rule="evenodd"/>
</clipPath>
<clipPath id="clip_97">
<path transform="matrix(1,0,0,-1,0,841.92)" d="M476.62 437.59H528.58V453.55H476.62Z" clip-rule="evenodd"/>
</clipPath>
<clipPath id="clip_98">
<path transform="matrix(1,0,0,-1,0,841.92)" d="M267.77 706.42H570V750.57998H267.77Z" clip-rule="evenodd"/>
</clipPath>
<clipPath id="clip_99">
<path transform="matrix(1,0,0,-1,0,841.92)" d="M267.77 706.42H570V750.57998H267.77Z" clip-rule="evenodd"/>
</clipPath>
<clipPath id="clip_100">
<path transform="matrix(1,0,0,-1,0,841.92)" d="M267.77 706.42H570V750.57998H267.77Z" clip-rule="evenodd"/>
</clipPath>
<clipPath id="clip_101">
<path transform="matrix(1,0,0,-1,0,841.92)" d="M267.77 706.42H570V750.57998H267.77Z" clip-rule="evenodd"/>
</clipPath>
<clipPath id="clip_102">
<path transform="matrix(1,0,0,-1,0,841.92)" d="M267.77 706.42H570V750.57998H267.77Z" clip-rule="evenodd"/>
</clipPath>
<clipPath id="clip_103">
<path transform="matrix(1,0,0,-1,0,841.92)" d="M267.77 706.42H570V750.57998H267.77Z" clip-rule="evenodd"/>
</clipPath>
<clipPath id="clip_104">
<path transform="matrix(1,0,0,-1,0,841.92)" d="M267.77 706.42H570V750.57998H267.77Z" clip-rule="evenodd"/>
</clipPath>
<clipPath id="clip_105">
<path transform="matrix(1,0,0,-1,0,841.92)" d="M35.64 117.02H201.41V207.62H35.64Z" clip-rule="evenodd"/>
</clipPath>
<clipPath id="clip_106">
<path transform="matrix(1,0,0,-1,0,841.92)" d="M35.64 117.02H201.41V207.62H35.64Z" clip-rule="evenodd"/>
</clipPath>
<clipPath id="clip_107">
<path transform="matrix(1,0,0,-1,0,841.92)" d="M35.64 117.02H201.41V207.62H35.64Z" clip-rule="evenodd"/>
</clipPath>
<clipPath id="clip_108">
<path transform="matrix(1,0,0,-1,0,841.92)" d="M35.64 117.02H201.41V207.62H35.64Z" clip-rule="evenodd"/>
</clipPath>
<clipPath id="clip_109">
<path transform="matrix(1,0,0,-1,0,841.92)" d="M35.64 117.02H201.41V207.62H35.64Z" clip-rule="evenodd"/>
</clipPath>
<clipPath id="clip_110">
<path transform="matrix(1,0,0,-1,0,841.92)" d="M35.64 117.02H201.41V207.62H35.64Z" clip-rule="evenodd"/>
</clipPath>
<clipPath id="clip_111">
<path transform="matrix(1,0,0,-1,0,841.92)" d="M35.64 117.02H201.41V207.62H35.64Z" clip-rule="evenodd"/>
</clipPath>
<clipPath id="clip_112">
<path transform="matrix(1,0,0,-1,0,841.92)" d="M35.64 117.02H201.41V207.62H35.64Z" clip-rule="evenodd"/>
</clipPath>
<clipPath id="clip_113">
<path transform="matrix(1,0,0,-1,0,841.92)" d="M35.64 117.02H201.41V207.62H35.64Z" clip-rule="evenodd"/>
</clipPath>
<clipPath id="clip_114">
<path transform="matrix(1,0,0,-1,0,841.92)" d="M35.64 117.02H201.41V207.62H35.64Z" clip-rule="evenodd"/>
</clipPath>
<clipPath id="clip_115">
<path transform="matrix(1,0,0,-1,0,841.92)" d="M35.64 117.02H201.41V207.62H35.64Z" clip-rule="evenodd"/>
</clipPath>
<clipPath id="clip_116">
<path transform="matrix(1,0,0,-1,0,841.92)" d="M35.64 117.02H201.41V207.62H35.64Z" clip-rule="evenodd"/>
</clipPath>
<clipPath id="clip_117">
<path transform="matrix(1,0,0,-1,0,841.92)" d="M35.64 117.02H201.41V207.62H35.64Z" clip-rule="evenodd"/>
</clipPath>
<clipPath id="clip_118">
<path transform="matrix(1,0,0,-1,0,841.92)" d="M35.64 117.02H201.41V207.62H35.64Z" clip-rule="evenodd"/>
</clipPath>
<clipPath id="clip_119">
<path transform="matrix(1,0,0,-1,0,841.92)" d="M35.64 117.02H201.41V207.62H35.64Z" clip-rule="evenodd"/>
</clipPath>
<clipPath id="clip_120">
<path transform="matrix(1,0,0,-1,0,841.92)" d="M35.64 117.02H201.41V207.62H35.64Z" clip-rule="evenodd"/>
</clipPath>
<clipPath id="clip_121">
<path transform="matrix(1,0,0,-1,0,841.92)" d="M35.64 117.02H201.41V207.62H35.64Z" clip-rule="evenodd"/>
</clipPath>
<clipPath id="clip_122">
<path transform="matrix(1,0,0,-1,0,841.92)" d="M35.64 117.02H201.41V207.62H35.64Z" clip-rule="evenodd"/>
</clipPath>
<clipPath id="clip_123">
<path transform="matrix(1,0,0,-1,0,841.92)" d="M35.64 117.02H201.41V207.62H35.64Z" clip-rule="evenodd"/>
</clipPath>
<clipPath id="clip_124">
<path transform="matrix(1,0,0,-1,0,841.92)" d="M35.64 117.02H201.41V207.62H35.64Z" clip-rule="evenodd"/>
</clipPath>
<clipPath id="clip_125">
<path transform="matrix(1,0,0,-1,0,841.92)" d="M35.64 117.02H201.41V207.62H35.64Z" clip-rule="evenodd"/>
</clipPath>
<clipPath id="clip_126">
<path transform="matrix(1,0,0,-1,0,841.92)" d="M31.32 33.36H203.32999V78.864H31.32Z" clip-rule="evenodd"/>
</clipPath>
<clipPath id="clip_127">
<path transform="matrix(1,0,0,-1,0,841.92)" d="M31.32 33.36H203.32999V78.864H31.32Z" clip-rule="evenodd"/>
</clipPath>
<clipPath id="clip_128">
<path transform="matrix(1,0,0,-1,0,841.92)" d="M31.32 33.36H203.32999V78.864H31.32Z" clip-rule="evenodd"/>
</clipPath>
<clipPath id="clip_129">
<path transform="matrix(1,0,0,-1,0,841.92)" d="M31.32 33.36H203.32999V78.864H31.32Z" clip-rule="evenodd"/>
</clipPath>
<clipPath id="clip_130">
<path transform="matrix(1,0,0,-1,0,841.92)" d="M31.32 33.36H203.32999V78.864H31.32Z" clip-rule="evenodd"/>
</clipPath>
<clipPath id="clip_131">
<path transform="matrix(1,0,0,-1,0,841.92)" d="M31.32 33.36H203.32999V78.864H31.32Z" clip-rule="evenodd"/>
</clipPath>
<clipPath id="clip_132">
<path transform="matrix(1,0,0,-1,0,841.92)" d="M31.32 33.36H203.32999V78.864H31.32Z" clip-rule="evenodd"/>
</clipPath>
<clipPath id="clip_133">
<path transform="matrix(1,0,0,-1,0,841.92)" d="M31.32 33.36H203.32999V78.864H31.32Z" clip-rule="evenodd"/>
</clipPath>
<clipPath id="clip_134">
<path transform="matrix(1,0,0,-1,0,841.92)" d="M31.32 33.36H203.32999V78.864H31.32Z" clip-rule="evenodd"/>
</clipPath>
<clipPath id="clip_135">
<path transform="matrix(1,0,0,-1,0,841.92)" d="M31.32 33.36H203.32999V78.864H31.32Z" clip-rule="evenodd"/>
</clipPath>
<clipPath id="clip_136">
<path transform="matrix(1,0,0,-1,0,841.92)" d="M31.32 33.36H203.32999V78.864H31.32Z" clip-rule="evenodd"/>
</clipPath>
<clipPath id="clip_137">
<path transform="matrix(1,0,0,-1,0,841.92)" d="M260.93 301.13H372.78999V313.97H260.93Z" clip-rule="evenodd"/>
</clipPath>
<clipPath id="clip_138">
<path transform="matrix(1,0,0,-1,0,841.92)" d="M260.93 301.13H372.78999V313.97H260.93Z" clip-rule="evenodd"/>
</clipPath>
<clipPath id="clip_139">
<path transform="matrix(1,0,0,-1,0,841.92)" d="M260.93 301.13H372.78999V313.97H260.93Z" clip-rule="evenodd"/>
</clipPath>
<clipPath id="clip_140">
<path transform="matrix(1,0,0,-1,0,841.92)" d="M280.25 561.07H396.66999V586.894H280.25Z" clip-rule="evenodd"/>
</clipPath>
<clipPath id="clip_141">
<path transform="matrix(1,0,0,-1,0,841.92)" d="M280.25 561.07H396.66999V586.894H280.25Z" clip-rule="evenodd"/>
</clipPath>
<clipPath id="clip_142">
<path transform="matrix(1,0,0,-1,0,841.92)" d="M280.25 561.07H396.66999V586.894H280.25Z" clip-rule="evenodd"/>
</clipPath>
<clipPath id="clip_143">
<path transform="matrix(1,0,0,-1,0,841.92)" d="M280.25 561.07H396.66999V586.894H280.25Z" clip-rule="evenodd"/>
</clipPath>
<clipPath id="clip_144">
<path transform="matrix(1,0,0,-1,0,841.92)" d="M280.25 561.07H396.66999V586.894H280.25Z" clip-rule="evenodd"/>
</clipPath>
<clipPath id="clip_145">
<path transform="matrix(1,0,0,-1,0,841.92)" d="M277.13 516.67H400.39V529.51H277.13Z" clip-rule="evenodd"/>
</clipPath>
<clipPath id="clip_146">
<path transform="matrix(1,0,0,-1,0,841.92)" d="M277.13 516.67H400.39V529.51H277.13Z" clip-rule="evenodd"/>
</clipPath>
<clipPath id="clip_147">
<path transform="matrix(1,0,0,-1,0,841.92)" d="M277.13 516.67H400.39V529.51H277.13Z" clip-rule="evenodd"/>
</clipPath>
<clipPath id="clip_148">
<path transform="matrix(1,0,0,-1,0,841.92)" d="M277.37 472.75H400.75V485.59H277.37Z" clip-rule="evenodd"/>
</clipPath>
<clipPath id="clip_149">
<path transform="matrix(1,0,0,-1,0,841.92)" d="M277.37 472.75H400.75V485.59H277.37Z" clip-rule="evenodd"/>
</clipPath>
<clipPath id="clip_150">
<path transform="matrix(1,0,0,-1,0,841.92)" d="M277.37 472.75H400.75V485.59H277.37Z" clip-rule="evenodd"/>
</clipPath>
<clipPath id="clip_151">
<path transform="matrix(1,0,0,-1,0,841.92)" d="M279.17 428.35H402.55003V441.19H279.17Z" clip-rule="evenodd"/>
</clipPath>
<clipPath id="clip_152">
<path transform="matrix(1,0,0,-1,0,841.92)" d="M279.17 428.35H402.55003V441.19H279.17Z" clip-rule="evenodd"/>
</clipPath>
<clipPath id="clip_153">
<path transform="matrix(1,0,0,-1,0,841.92)" d="M279.17 428.35H402.55003V441.19H279.17Z" clip-rule="evenodd"/>
</clipPath>
<clipPath id="clip_154">
<path transform="matrix(1,0,0,-1,0,841.92)" d="M279.17 386.93H402.55003V399.77H279.17Z" clip-rule="evenodd"/>
</clipPath>
<clipPath id="clip_155">
<path transform="matrix(1,0,0,-1,0,841.92)" d="M279.17 386.93H402.55003V399.77H279.17Z" clip-rule="evenodd"/>
</clipPath>
<clipPath id="clip_156">
<path transform="matrix(1,0,0,-1,0,841.92)" d="M279.17 386.93H402.55003V399.77H279.17Z" clip-rule="evenodd"/>
</clipPath>
<clipPath id="clip_157">
<path transform="matrix(1,0,0,-1,0,841.92)" d="M271.73 269.93H400.39V282.77H271.73Z" clip-rule="evenodd"/>
</clipPath>
<clipPath id="clip_158">
<path transform="matrix(1,0,0,-1,0,841.92)" d="M271.73 269.93H400.39V282.77H271.73Z" clip-rule="evenodd"/>
</clipPath>
<clipPath id="clip_159">
<path transform="matrix(1,0,0,-1,0,841.92)" d="M271.73 269.93H400.39V282.77H271.73Z" clip-rule="evenodd"/>
</clipPath>
<clipPath id="clip_160">
<path transform="matrix(1,0,0,-1,0,841.92)" d="M271.73 269.93H400.39V282.77H271.73Z" clip-rule="evenodd"/>
</clipPath>
<clipPath id="clip_161">
<path transform="matrix(1,0,0,-1,0,841.92)" d="M270.53 227.93H399.19V240.76999H270.53Z" clip-rule="evenodd"/>
</clipPath>
<clipPath id="clip_162">
<path transform="matrix(1,0,0,-1,0,841.92)" d="M270.53 227.93H399.19V240.76999H270.53Z" clip-rule="evenodd"/>
</clipPath>
<clipPath id="clip_163">
<path transform="matrix(1,0,0,-1,0,841.92)" d="M270.53 227.93H399.19V240.76999H270.53Z" clip-rule="evenodd"/>
</clipPath>
<clipPath id="clip_164">
<path transform="matrix(1,0,0,-1,0,841.92)" d="M272.93 179.3H398.59V192.14H272.93Z" clip-rule="evenodd"/>
</clipPath>
<clipPath id="clip_165">
<path transform="matrix(1,0,0,-1,0,841.92)" d="M272.93 179.3H398.59V192.14H272.93Z" clip-rule="evenodd"/>
</clipPath>
<clipPath id="clip_166">
<path transform="matrix(1,0,0,-1,0,841.92)" d="M272.93 179.3H398.59V192.14H272.93Z" clip-rule="evenodd"/>
</clipPath>
<clipPath id="clip_167">
<path transform="matrix(1,0,0,-1,0,841.92)" d="M505.42 32.4H554.98007V45H505.42Z" clip-rule="evenodd"/>
</clipPath>
<clipPath id="clip_168">
<path transform="matrix(1,0,0,-1,0,841.92)" d="M505.42 32.4H554.98007V45H505.42Z" clip-rule="evenodd"/>
</clipPath>
<clipPath id="clip_169">
<path transform="matrix(1,0,0,-1,0,841.92)" d="M505.42 32.4H554.98007V45H505.42Z" clip-rule="evenodd"/>
</clipPath>
<clipPath id="clip_170">
<path transform="matrix(1,0,0,-1,0,841.92)" d="M505.42 32.4H554.98007V45H505.42Z" clip-rule="evenodd"/>
</clipPath>
<clipPath id="clip_171">
<path transform="matrix(1,0,0,-1,0,841.92)" d="M75.504 307.85H159.504V334.97H75.504Z" clip-rule="evenodd"/>
</clipPath>
<clipPath id="clip_172">
<path transform="matrix(1,0,0,-1,0,841.92)" d="M75.504 307.85H159.504V334.97H75.504Z" clip-rule="evenodd"/>
</clipPath>
<clipPath id="clip_173">
<path transform="matrix(1,0,0,-1,0,841.92)" d="M75.504 307.85H159.504V334.97H75.504Z" clip-rule="evenodd"/>
</clipPath>
<clipPath id="clip_174">
<path transform="matrix(1,0,0,-1,0,841.92)" d="M75.504 307.85H159.504V334.97H75.504Z" clip-rule="evenodd"/>
</clipPath>
<clipPath id="clip_175">
<path transform="matrix(1,0,0,-1,0,841.92)" d="M18.36 266.81H98.064V278.09H18.36Z" clip-rule="evenodd"/>
</clipPath>
<clipPath id="clip_176">
<path transform="matrix(1,0,0,-1,0,841.92)" d="M18.36 266.81H98.064V278.09H18.36Z" clip-rule="evenodd"/>
</clipPath>
<clipPath id="clip_177">
<path transform="matrix(1,0,0,-1,0,841.92)" d="M18.36 266.81H98.064V278.09H18.36Z" clip-rule="evenodd"/>
</clipPath>
<clipPath id="clip_178">
<path transform="matrix(1,0,0,-1,0,841.92)" d="M129.38 266.81H209.08402V278.09H129.38Z" clip-rule="evenodd"/>
</clipPath>
<clipPath id="clip_179">
<path transform="matrix(1,0,0,-1,0,841.92)" d="M129.38 266.81H209.08402V278.09H129.38Z" clip-rule="evenodd"/>
</clipPath>
<clipPath id="clip_180">
<path transform="matrix(1,0,0,-1,0,841.92)" d="M129.38 266.81H209.08402V278.09H129.38Z" clip-rule="evenodd"/>
</clipPath>
<clipPath id="clip_181">
<path transform="matrix(1,0,0,-1,0,841.92)" d="M129.38 266.81H209.08402V278.09H129.38Z" clip-rule="evenodd"/>
</clipPath>
<clipPath id="clip_182">
<path transform="matrix(1,0,0,-1,0,841.92)" d="M129.38 266.81H209.08402V278.09H129.38Z" clip-rule="evenodd"/>
</clipPath>
<clipPath id="clip_183">
<path transform="matrix(1,0,0,-1,0,841.92)" d="M28.32 290.57H55.08V304.13H28.32Z" clip-rule="evenodd"/>
</clipPath>
<clipPath id="clip_184">
<path transform="matrix(1,0,0,-1,0,841.92)" d="M28.32 290.57H55.08V304.13H28.32Z" clip-rule="evenodd"/>
</clipPath>
<clipPath id="clip_185">
<path transform="matrix(1,0,0,-1,0,841.92)" d="M28.32 290.57H55.08V304.13H28.32Z" clip-rule="evenodd"/>
</clipPath>
<clipPath id="clip_186">
<path transform="matrix(1,0,0,-1,0,841.92)" d="M177.14 288.17H208.724V301.73H177.14Z" clip-rule="evenodd"/>
</clipPath>
<clipPath id="clip_187">
<path transform="matrix(1,0,0,-1,0,841.92)" d="M177.14 288.17H208.724V301.73H177.14Z" clip-rule="evenodd"/>
</clipPath>
<clipPath id="clip_188">
<path transform="matrix(1,0,0,-1,0,841.92)" d="M177.14 288.17H208.724V301.73H177.14Z" clip-rule="evenodd"/>
</clipPath>
</defs>
<g>
<g clip-path="url(#clip_1)">
<text xml:space="preserve" transform="matrix(1 0 -0 1 0 841.92)" font-size="11.04" font-family="Calibri"><tspan y="-764.64" x="108.02"> </tspan></text>
</g>
<g clip-path="url(#clip_2)">
<text xml:space="preserve" transform="matrix(1 0 -0 1 0 841.92)" font-size="11.04" font-family="Calibri"><tspan y="-757.9" x="108.02"> </tspan></text>
</g>
<g clip-path="url(#clip_3)">
<text xml:space="preserve" transform="matrix(1 0 -0 1 0 841.92)" font-size="11.04" font-family="Calibri"><tspan y="-746.02" x="72.024"> </tspan></text>
</g>
<g clip-path="url(#clip_4)">
<text xml:space="preserve" transform="matrix(1 0 -0 1 0 841.92)" font-size="11.04" font-family="Calibri"><tspan y="-723.58" x="72.024"> </tspan></text>
</g>
<g clip-path="url(#clip_5)">
<text xml:space="preserve" transform="matrix(1 0 -0 1 0 841.92)" font-size="11.04" font-family="Calibri"><tspan y="-701.02" x="72.024"> </tspan></text>
</g>
<g clip-path="url(#clip_6)">
<text xml:space="preserve" transform="matrix(1 0 -0 1 0 841.92)" font-size="11.04" font-family="Calibri"><tspan y="-678.58" x="87.864"> </tspan></text>
</g>
<g clip-path="url(#clip_7)">
<text xml:space="preserve" transform="matrix(1 0 -0 1 0 841.92)" font-size="11.04" font-family="Calibri"><tspan y="-656.02" x="312.91"> </tspan></text>
</g>
<g clip-path="url(#clip_8)">
<text xml:space="preserve" transform="matrix(1 0 -0 1 0 841.92)" font-size="11.04" font-family="Calibri" font-weight="bold"><tspan y="-656.02" x="324.07"> </tspan></text>
</g>
<g clip-path="url(#clip_9)">
</g>
<g clip-path="url(#clip_10)">
<text xml:space="preserve" transform="matrix(1 0 -0 1 0 841.92)" font-size="11.04" font-family="Calibri"><tspan y="-633.58" x="72.024"> </tspan></text>
</g>
<g clip-path="url(#clip_11)">
<text xml:space="preserve" transform="matrix(1 0 -0 1 0 841.92)" font-size="11.04" font-family="Calibri"><tspan y="-611.14" x="72.024"> </tspan></text>
</g>
<g clip-path="url(#clip_12)">
<text xml:space="preserve" transform="matrix(1 0 -0 1 0 841.92)" font-size="11.04" font-family="Calibri"><tspan y="-588.58" x="72.024"> </tspan></text>
</g>
<g clip-path="url(#clip_13)">
<text xml:space="preserve" transform="matrix(1 0 -0 1 0 841.92)" font-size="11.04" font-family="Calibri"><tspan y="-566.11" x="72.024"> </tspan></text>
</g>
<g clip-path="url(#clip_14)">
<text xml:space="preserve" transform="matrix(1 0 -0 1 0 841.92)" font-size="11.04" font-family="Calibri"><tspan y="-543.55" x="72.024"> </tspan></text>
</g>
<g clip-path="url(#clip_15)">
<text xml:space="preserve" transform="matrix(1 0 -0 1 0 841.92)" font-size="11.04" font-family="Calibri"><tspan y="-521.11" x="72.024"> </tspan></text>
</g>
<g clip-path="url(#clip_16)">
<text xml:space="preserve" transform="matrix(1 0 -0 1 0 841.92)" font-size="11.04" font-family="Calibri"><tspan y="-498.55" x="72.024"> </tspan></text>
</g>
<g clip-path="url(#clip_17)">
<text xml:space="preserve" transform="matrix(1 0 -0 1 0 841.92)" font-size="11.04" font-family="Calibri"><tspan y="-476.11" x="72.024"> </tspan></text>
</g>
<g clip-path="url(#clip_18)">
<text xml:space="preserve" transform="matrix(1 0 -0 1 0 841.92)" font-size="11.04" font-family="Calibri"><tspan y="-453.67" x="72.024"> </tspan></text>
</g>
<g clip-path="url(#clip_19)">
<text xml:space="preserve" transform="matrix(1 0 -0 1 0 841.92)" font-size="11.04" font-family="Calibri"><tspan y="-431.11" x="72.024"> </tspan></text>
</g>
<g clip-path="url(#clip_20)">
<text xml:space="preserve" transform="matrix(1 0 -0 1 0 841.92)" font-size="11.04" font-family="Calibri"><tspan y="-408.67" x="72.024"> </tspan></text>
</g>
<g clip-path="url(#clip_21)">
<text xml:space="preserve" transform="matrix(1 0 -0 1 0 841.92)" font-size="11.04" font-family="Calibri"><tspan y="-386.09" x="72.024"> </tspan></text>
</g>
<g clip-path="url(#clip_22)">
<text xml:space="preserve" transform="matrix(1 0 -0 1 0 841.92)" font-size="11.04" font-family="Calibri"><tspan y="-363.65" x="72.024"> </tspan></text>
</g>
<g clip-path="url(#clip_23)">
<text xml:space="preserve" transform="matrix(1 0 -0 1 0 841.92)" font-size="11.04" font-family="Calibri"><tspan y="-341.09" x="72.024"> </tspan></text>
</g>
<g clip-path="url(#clip_24)">
<text xml:space="preserve" transform="matrix(1 0 -0 1 0 841.92)" font-size="11.04" font-family="Calibri"><tspan y="-318.65" x="72.024"> </tspan></text>
</g>
<g clip-path="url(#clip_25)">
<text xml:space="preserve" transform="matrix(1 0 -0 1 0 841.92)" font-size="11.04" font-family="Calibri"><tspan y="-296.21" x="72.024"> </tspan></text>
</g>
<g clip-path="url(#clip_26)">
<text xml:space="preserve" transform="matrix(1 0 -0 1 0 841.92)" font-size="11.04" font-family="Calibri"><tspan y="-273.65" x="72.024"> </tspan></text>
</g>
<g clip-path="url(#clip_27)">
<text xml:space="preserve" transform="matrix(1 0 -0 1 0 841.92)" font-size="11.04" font-family="Calibri"><tspan y="-251.21" x="72.024"> </tspan></text>
</g>
<g clip-path="url(#clip_28)">
<text xml:space="preserve" transform="matrix(1 0 -0 1 0 841.92)" font-size="11.04" font-family="Calibri"><tspan y="-228.65" x="72.024"> </tspan></text>
</g>
<g clip-path="url(#clip_29)">
<text xml:space="preserve" transform="matrix(1 0 -0 1 0 841.92)" font-size="11.04" font-family="Calibri"><tspan y="-206.18" x="72.024"> </tspan></text>
</g>
<g clip-path="url(#clip_30)">
<text xml:space="preserve" transform="matrix(1 0 -0 1 0 841.92)" font-size="11.04" font-family="Calibri" font-weight="bold"><tspan y="-206.18" x="74.544"> </tspan></text>
</g>
<g clip-path="url(#clip_31)">
<text xml:space="preserve" transform="matrix(1 0 -0 1 0 841.92)" font-size="11.04" font-family="Calibri" font-weight="bold"><tspan y="-206.18" x="76.944"> </tspan></text>
</g>
<g clip-path="url(#clip_32)">
<text xml:space="preserve" transform="matrix(1 0 -0 1 0 841.92)" font-size="11.04" font-family="Calibri"><tspan y="-183.74" x="297.65 300.14503 302.6842 305.17924 307.7184 310.11408 312.6091 315.1483">        </tspan></text>
</g>
<g clip-path="url(#clip_33)">
<text xml:space="preserve" transform="matrix(1 0 -0 1 0 841.92)" font-size="11.04" font-family="Calibri" font-weight="bold"><tspan y="-183.74" x="317.59"> </tspan></text>
</g>
<g clip-path="url(#clip_34)">
<text xml:space="preserve" transform="matrix(1 0 -0 1 0 841.92)" font-size="11.04" font-family="Calibri" font-weight="bold"><tspan y="-161.18" x="297.65"> </tspan></text>
</g>
<g clip-path="url(#clip_35)">
<text xml:space="preserve" transform="matrix(1 0 -0 1 0 841.92)" font-size="11.04" font-family="Calibri" font-weight="bold"><tspan y="-138.74" x="72.024"> </tspan></text>
</g>
<path transform="matrix(1,0,0,-1,0,841.92)" d="M149.38 831.02H187.22C192.18 831.02 196.2 824.44 196.2 816.32 196.2 808.2 192.18 801.62 187.22 801.62H149.38C144.42 801.62 140.4 808.2 140.4 816.32 140.4 824.44 144.42 831.02 149.38 831.02Z" fill="#4472c4" fill-rule="evenodd"/>
<path transform="matrix(1,0,0,-1,0,841.92)" stroke-width="1" stroke-linecap="butt" stroke-miterlimit="10" stroke-linejoin="miter" fill="none" stroke="#172c51" d="M149.38 831.02H187.22C192.18 831.02 196.2 824.44 196.2 816.32 196.2 808.2 192.18 801.62 187.22 801.62H149.38C144.42 801.62 140.4 808.2 140.4 816.32 140.4 824.44 144.42 831.02 149.38 831.02Z"/>
<g clip-path="url(#clip_36)">
<g clip-path="url(#clip_37)">
<text fill="#ffffff" xml:space="preserve" transform="matrix(1 0 -0 1 0 841.92)" font-size="12" font-family="Arial" font-weight="bold"><tspan y="-811.32" x="154.58 162.608 166.604 173.276 177.944">Start</tspan></text>
</g>
<g clip-path="url(#clip_38)">
<text fill="#ffffff" xml:space="preserve" transform="matrix(1 0 -0 1 0 841.92)" font-size="12" font-family="Arial" font-weight="bold"><tspan y="-811.32" x="181.94"> </tspan></text>
</g>
</g>
<path transform="matrix(1,0,0,-1,0,841.92)" d="M112.35 776.57C112.35 780.1 115.22 782.97 118.75 782.97H219.95C223.48 782.97 226.35 780.1 226.35 776.57V750.97C226.35 747.44 223.48 744.57 219.95 744.57H118.75C115.22 744.57 112.35 747.44 112.35 750.97Z" fill="#fcb6f0" fill-rule="evenodd"/>
<path transform="matrix(1,0,0,-1,0,841.92)" stroke-width="1" stroke-linecap="butt" stroke-miterlimit="10" stroke-linejoin="miter" fill="none" stroke="#172c51" d="M112.35 776.57C112.35 780.1 115.22 782.97 118.75 782.97H219.95C223.48 782.97 226.35 780.1 226.35 776.57V750.97C226.35 747.44 223.48 744.57 219.95 744.57H118.75C115.22 744.57 112.35 747.44 112.35 750.97Z"/>
<g clip-path="url(#clip_39)">
<g clip-path="url(#clip_40)">
<text xml:space="preserve" transform="matrix(1 0 -0 1 0 841.92)" font-size="11.04" font-family="Calibri" font-weight="bold"><tspan y="-766.56" x="124.58 127.57184 133.45616 136.20513 139.43433 142.66353 148.1173 150.72274 153.4717 157.66689 163.18688 166.18976 168.6848 173.8736 179.39359 183.11408 185.60912 190.91936 196.80368 200.63457 204.48754 209.76465 214.19168">Initialize: Set Entrez </tspan></text>
</g>
<g clip-path="url(#clip_41)">
<text xml:space="preserve" transform="matrix(1 0 -0 1 0 841.92)" font-size="11.04" font-family="Calibri" font-weight="bold"><tspan y="-752.02" x="129.14 134.65999 143.63552 149.08928 151.80512 154.56511 157.32512 159.82016 166.77536 169.44704 173.28896 178.80895 183.36846 187.08895 192.97325 196.92559 199.67455 205.19454">email, Directories</tspan></text>
</g>
<g clip-path="url(#clip_42)">
<text xml:space="preserve" transform="matrix(1 0 -0 1 0 841.92)" font-size="11.04" font-family="Calibri" font-weight="bold"><tspan y="-752.02" x="209.57"> </tspan></text>
</g>
</g>
<path transform="matrix(1,0,0,-1,0,841.92)" d="M44.4 707.6C44.4 709.81 46.191 711.6 48.4 711.6H192.2C194.41 711.6 196.2 709.81 196.2 707.6V691.6C196.2 689.39 194.41 687.6 192.2 687.6H48.4C46.191 687.6 44.4 689.39 44.4 691.6Z" fill="#fcb6f0" fill-rule="evenodd"/>
<path transform="matrix(1,0,0,-1,0,841.92)" stroke-width="1" stroke-linecap="butt" stroke-miterlimit="10" stroke-linejoin="miter" fill="none" stroke="#172c51" d="M44.4 707.6C44.4 709.81 46.191 711.6 48.4 711.6H192.2C194.41 711.6 196.2 709.81 196.2 707.6V691.6C196.2 689.39 194.41 687.6 192.2 687.6H48.4C46.191 687.6 44.4 689.39 44.4 691.6Z"/>
<g clip-path="url(#clip_43)">
<g clip-path="url(#clip_44)">
<text xml:space="preserve" transform="matrix(1 0 -0 1 0 841.92)" font-size="11.04" font-family="Calibri" font-weight="bold"><tspan y="-695.86" x="56.04 59.03184 64.91616 70.80048 76.68481 80.515689 83.03281 89.02753 94.54753 99.107059 104.62706 110.51138 114.231868 120.11619 123.95811 128.38515 130.88019 136.33396 142.18515 148.06948 150.56452 155.25652 158.00548 163.05075 168.44931 174.21219 180.09651 184.52355">Input Receptors and Ligands </tspan></text>
</g>
<g clip-path="url(#clip_45)">
<text xml:space="preserve" transform="matrix(1 0 -0 1 0 841.92)" font-size="11.04" font-family="Calibri" font-weight="bold"><tspan y="-695.86" x="187.01"> </tspan></text>
</g>
</g>
<path transform="matrix(1,0,0,-1,0,841.92)" d="M37.7 634.68C37.7 636.89 39.491 638.68 41.7 638.68H196.55C198.76 638.68 200.55 636.89 200.55 634.68V618.68C200.55 616.47 198.76 614.68 196.55 614.68H41.7C39.491 614.68 37.7 616.47 37.7 618.68Z" fill="#bdd7ee" fill-rule="evenodd"/>
<path transform="matrix(1,0,0,-1,0,841.92)" stroke-width="1" stroke-linecap="butt" stroke-miterlimit="10" stroke-linejoin="miter" fill="none" stroke="#172c51" d="M37.7 634.68C37.7 636.89 39.491 638.68 41.7 638.68H196.55C198.76 638.68 200.55 636.89 200.55 634.68V618.68C200.55 616.47 198.76 614.68 196.55 614.68H41.7C39.491 614.68 37.7 616.47 37.7 618.68Z"/>
<g clip-path="url(#clip_46)">
<g clip-path="url(#clip_47)">
<text xml:space="preserve" transform="matrix(1 0 -0 1 0 841.92)" font-size="11.04" font-family="Calibri" font-weight="bold"><tspan y="-622.9" x="50.04 56.9952 62.879526 71.14848 77.03281 79.78177 85.66609 91.06465 96.948978 99.444019 103.904178 110.506099 115.66177 120.22129 126.91153 129.34033 132.6965 138.58081 142.53314 144.92882 148.77074 154.29073 158.85024 164.37023 170.25455 173.97504 179.85935 183.70127 188.1283 190.62334">Download FASTA for receptors  </tspan></text>
</g>
<g clip-path="url(#clip_48)">
<text xml:space="preserve" transform="matrix(1 0 -0 1 0 841.92)" font-size="11.04" font-family="Calibri" font-weight="bold"><tspan y="-622.9" x="193.13"> </tspan></text>
</g>
</g>
<path transform="matrix(1,0,0,-1,0,841.92)" d="M54.55 593.6C54.55 597.3 57.55 600.3 61.25 600.3H179.85C183.55 600.3 186.55 597.3 186.55 593.6V566.8C186.55 563.1 183.55 560.1 179.85 560.1H61.25C57.55 560.1 54.55 563.1 54.55 566.8Z" fill="#bdd7ee" fill-rule="evenodd"/>
<path transform="matrix(1,0,0,-1,0,841.92)" stroke-width="1" stroke-linecap="butt" stroke-miterlimit="10" stroke-linejoin="miter" fill="none" stroke="#172c51" d="M54.55 593.6C54.55 597.3 57.55 600.3 61.25 600.3H179.85C183.55 600.3 186.55 597.3 186.55 593.6V566.8C186.55 563.1 183.55 560.1 179.85 560.1H61.25C57.55 560.1 54.55 563.1 54.55 566.8Z"/>
<g clip-path="url(#clip_49)">
<g clip-path="url(#clip_50)">
<text xml:space="preserve" transform="matrix(1 0 -0 1 0 841.92)" font-size="11.04" font-family="Calibri" font-weight="bold"><tspan y="-583.78" x="68.784 78.388797 84.27312 90.15744 95.677448 98.42641 100.92145 106.84993 112.70113 115.450099 118.19906 124.08338 126.832347 132.71666 137.98274 140.37842 143.84497 149.00066 158.8373 161.82913 166.98482 172.1405">Model building (SWISS </tspan></text>
</g>
<g clip-path="url(#clip_51)">
<text xml:space="preserve" transform="matrix(1 0 -0 1 0 841.92)" font-size="11.04" font-family="Calibri" font-weight="bold"><tspan y="-569.23" x="73.584 83.1888 90.65184 97.60704 102.99456 107.66448 111.14208 113.63712 119.42209 123.84913 126.59809 132.4824 137.63808 140.13312 144.59329 151.19522 156.3509 160.91043">MODEL) using FASTA</tspan></text>
</g>
<g clip-path="url(#clip_52)">
<text xml:space="preserve" transform="matrix(1 0 -0 1 0 841.92)" font-size="11.04" font-family="Calibri" font-weight="bold"><tspan y="-569.23" x="167.54"> </tspan></text>
</g>
</g>
<path transform="matrix(1,0,0,-1,0,841.92)" d="M52.2 537.13C52.2 542.04 56.185 546.03 61.1 546.03H178.3C183.22 546.03 187.2 542.04 187.2 537.13V501.53C187.2 496.61 183.22 492.63 178.3 492.63H61.1C56.185 492.63 52.2 496.61 52.2 501.53Z" fill="#bdd7ee" fill-rule="evenodd"/>
<path transform="matrix(1,0,0,-1,0,841.92)" stroke-width="1" stroke-linecap="butt" stroke-miterlimit="10" stroke-linejoin="miter" fill="none" stroke="#172c51" d="M52.2 537.13C52.2 542.04 56.185 546.03 61.1 546.03H178.3C183.22 546.03 187.2 542.04 187.2 537.13V501.53C187.2 496.61 183.22 492.63 178.3 492.63H61.1C56.185 492.63 52.2 496.61 52.2 501.53Z"/>
<g clip-path="url(#clip_53)">
<g clip-path="url(#clip_54)">
<text xml:space="preserve" transform="matrix(1 0 -0 1 0 841.92)" font-size="11.04" font-family="Calibri" font-weight="bold"><tspan y="-528.79" x="96.504 102.38832 107.78688 110.53584 113.284809 119.16913 124.56769 127.79689 131.0261 136.93248 142.8168">Validation </tspan></text>
</g>
<g clip-path="url(#clip_55)">
<text xml:space="preserve" transform="matrix(1 0 -0 1 0 841.92)" font-size="11.04" font-family="Calibri" font-weight="bold"><tspan y="-514.39" x="68.064 71.53056 77.746089 83.199848 92.17536 97.57392 102.133449 108.01777 113.41633 119.30065 125.184978 128.90546 134.30402 140.18834 142.68338 148.61186 151.3277 157.22306 161.05394 163.57106 171.35427">(Ramachandran plot &#x0026; </tspan></text>
</g>
<g clip-path="url(#clip_56)">
<text xml:space="preserve" transform="matrix(1 0 -0 1 0 841.92)" font-size="11.04" font-family="Calibri" font-weight="bold"><tspan y="-499.87" x="76.824 86.4288 92.313129 95.06209 100.93537 104.77729 110.66161 116.54594 119.2949 123.01538 128.28147 130.7765 136.80434 142.32433 146.75136 152.63568 155.38465 159.10514 162.57169 165.06673">MolProbity Result)  </tspan></text>
</g>
<g clip-path="url(#clip_57)">
<text xml:space="preserve" transform="matrix(1 0 -0 1 0 841.92)" font-size="11.04" font-family="Calibri" font-weight="bold"><tspan y="-499.87" x="167.54"> </tspan></text>
</g>
</g>
<path transform="matrix(1,0,0,-1,0,841.92)" d="M45 472.9C45 476.55 47.955 479.5 51.6 479.5H188C191.65 479.5 194.6 476.55 194.6 472.9V446.5C194.6 442.86 191.65 439.9 188 439.9H51.6C47.955 439.9 45 442.86 45 446.5Z" fill="#bdd7ee" fill-rule="evenodd"/>
<path transform="matrix(1,0,0,-1,0,841.92)" stroke-width="1" stroke-linecap="butt" stroke-miterlimit="10" stroke-linejoin="miter" fill="none" stroke="#172c51" d="M45 472.9C45 476.55 47.955 479.5 51.6 479.5H188C191.65 479.5 194.6 476.55 194.6 472.9V446.5C194.6 442.86 191.65 439.9 188 439.9H51.6C47.955 439.9 45 442.86 45 446.5Z"/>
<g clip-path="url(#clip_58)">
<g clip-path="url(#clip_59)">
<text xml:space="preserve" transform="matrix(1 0 -0 1 0 841.92)" font-size="11.04" font-family="Calibri" font-weight="bold"><tspan y="-463.03" x="58.92 65.8752 71.75952 80.02848 85.9128 88.661769 94.54609 99.94465 105.82897 108.32401 113.77777 119.628978 125.5133 128.00833 132.45745 137.73458 142.89026 148.41025 150.90529 160.55425 166.40544 172.28977 177.80976 180.4483">Download and save Model </tspan></text>
</g>
<g clip-path="url(#clip_60)">
<text xml:space="preserve" transform="matrix(1 0 -0 1 0 841.92)" font-size="11.04" font-family="Calibri" font-weight="bold"><tspan y="-448.51" x="70.224 75.62256 81.50688 87.391208 89.886249 95.79265 101.19121 103.94017 106.68913 112.573459 117.972019 121.20122 124.43041 130.3368 136.22113 138.71617 142.58017 148.10016 152.52719 158.29007 161.03903 164.86992">and Validation results</tspan></text>
</g>
<g clip-path="url(#clip_61)">
<text xml:space="preserve" transform="matrix(1 0 -0 1 0 841.92)" font-size="11.04" font-family="Calibri" font-weight="bold"><tspan y="-448.51" x="169.22"> </tspan></text>
</g>
</g>
<path transform="matrix(1,0,0,-1,0,841.92)" d="M26.8 423.67C26.8 425.77 28.501 427.47 30.6 427.47H207.35C209.45 427.47 211.15 425.77 211.15 423.67V408.47C211.15 406.37 209.45 404.67 207.35 404.67H30.6C28.501 404.67 26.8 406.37 26.8 408.47Z" fill="#bdd7ee" fill-rule="evenodd"/>
<path transform="matrix(1,0,0,-1,0,841.92)" stroke-width="1" stroke-linecap="butt" stroke-miterlimit="10" stroke-linejoin="miter" fill="none" stroke="#172c51" d="M26.8 423.67C26.8 425.77 28.501 427.47 30.6 427.47H207.35C209.45 427.47 211.15 425.77 211.15 423.67V408.47C211.15 406.37 209.45 404.67 207.35 404.67H30.6C28.501 404.67 26.8 406.37 26.8 408.47Z"/>
<g clip-path="url(#clip_62)">
<g clip-path="url(#clip_63)">
<text xml:space="preserve" transform="matrix(1 0 -0 1 0 841.92)" font-size="11.04" font-family="Calibri" font-weight="bold"><tspan y="-411.79" x="45.84 50.99568 56.515684 61.914247 65.63472 70.30464 76.188968 78.684009 81.45505 84.20401 89.24929 94.64785 100.53217 106.4165 108.91154 114.84002 120.2165 129.19202 134.74514 137.24018 140.00017 145.88449 148.37953 154.2528 160.18129 165.92209 171.79538 177.6797 183.19969 192.17522 194.70339 197.19843">Search ligand name in PubChem   </tspan></text>
</g>
<g clip-path="url(#clip_64)">
<text xml:space="preserve" transform="matrix(1 0 -0 1 0 841.92)" font-size="11.04" font-family="Calibri" font-weight="bold"><tspan y="-411.79" x="199.73"> </tspan></text>
</g>
</g>
<path transform="matrix(1,0,0,-1,0,841.92)" d="M36.85 385.04C36.85 387.14 38.551 388.84 40.65 388.84H196.85C198.95 388.84 200.65 387.14 200.65 385.04V369.84C200.65 367.74 198.95 366.04 196.85 366.04H40.65C38.551 366.04 36.85 367.74 36.85 369.84Z" fill="#bdd7ee" fill-rule="evenodd"/>
<path transform="matrix(1,0,0,-1,0,841.92)" stroke-width="1" stroke-linecap="butt" stroke-miterlimit="10" stroke-linejoin="miter" fill="none" stroke="#172c51" d="M36.85 385.04C36.85 387.14 38.551 388.84 40.65 388.84H196.85C198.95 388.84 200.65 387.14 200.65 385.04V369.84C200.65 367.74 198.95 366.04 196.85 366.04H40.65C38.551 366.04 36.85 367.74 36.85 369.84Z"/>
<g clip-path="url(#clip_65)">
<g clip-path="url(#clip_66)">
<text xml:space="preserve" transform="matrix(1 0 -0 1 0 841.92)" font-size="11.04" font-family="Calibri" font-weight="bold"><tspan y="-373.13" x="57.12 64.0752 69.959529 78.228488 84.11281 86.86177 92.74609 98.14465 104.02898 106.52402 109.29506 115.17938 117.575069 123.20547 129.92884 132.81027 137.2373 143.12163 146.61028 149.10532 152.48357 158.36788 162.2098 171.08596 176.36309">Download in 3D.sdf format</tspan></text>
</g>
<g clip-path="url(#clip_67)">
<text fill="#ffffff" xml:space="preserve" transform="matrix(1 0 -0 1 0 841.92)" font-size="11.04" font-family="Calibri"><tspan y="-355.61" x="138.86 141.38004 143.90007">   </tspan></text>
</g>
<g clip-path="url(#clip_68)">
<text fill="#ffffff" xml:space="preserve" transform="matrix(1 0 -0 1 0 841.92)" font-size="11.04" font-family="Calibri"><tspan y="-355.61" x="146.3"> </tspan></text>
</g>
</g>
<path transform="matrix(1,0,0,-1,0,841.92)" stroke-width="1" stroke-linecap="butt" stroke-miterlimit="10" stroke-linejoin="miter" fill="none" stroke="#172c51" d="M13.8 14.53H225.6V658.33H13.8Z"/>
<path transform="matrix(1,0,0,-1,0,841.92)" d="M23.4 648.72H76.8V673.31997H23.4Z" fill="#ffffff" fill-rule="evenodd"/>
<path transform="matrix(1,0,0,-1,0,841.92)" stroke-width="1.5" stroke-linecap="butt" stroke-miterlimit="10" stroke-linejoin="miter" fill="none" stroke="#000000" d="M23.4 648.72H76.8V673.31997H23.4Z"/>
<g clip-path="url(#clip_69)">
<g clip-path="url(#clip_70)">
<text xml:space="preserve" transform="matrix(1 0 -0 1 0 841.92)" font-size="14.04" font-family="Calibri" font-weight="bold"><tspan y="-655.66" x="31.32 37.96092 42.594118 49.656236 57.195718 60.368757 67.43088">Step 1 </tspan></text>
</g>
<g clip-path="url(#clip_71)">
<text xml:space="preserve" transform="matrix(1 0 -0 1 0 841.92)" font-size="14.04" font-family="Calibri" font-weight="bold"><tspan y="-655.66" x="70.584"> </tspan></text>
</g>
</g>
<path transform="matrix(1,0,0,-1,0,841.92)" d="M254.4 358.9H413.4V609.1H254.4Z" fill="#bdd7ee" fill-rule="evenodd"/>
<path transform="matrix(1,0,0,-1,0,841.92)" stroke-width="1" stroke-linecap="butt" stroke-miterlimit="10" stroke-linejoin="miter" fill="none" stroke="#172c51" d="M254.4 358.9H413.4V609.1H254.4Z"/>
<path transform="matrix(1,0,0,-1,0,841.92)" d="M531.7 194.42H530.2V72.124L530.7 72.624H211.65V71.624H531.2V193.92L530.7 193.42H531.7ZM212.65 75.124 206.65 72.124 212.65 69.124Z"/>
<path transform="matrix(1,0,0,-1,0,841.92)" d="M255.6 157.77H413.40003V309.72H255.6Z" fill="#bdd7ee" fill-rule="evenodd"/>
<path transform="matrix(1,0,0,-1,0,841.92)" stroke-width="1" stroke-linecap="butt" stroke-miterlimit="10" stroke-linejoin="miter" fill="none" stroke="#172c51" d="M255.6 157.77H413.40003V309.72H255.6Z"/>
<path transform="matrix(1,0,0,-1,0,841.92)" d="M209.4 185.01H218.27V577.31L217.77 576.81H274.6V577.81H217.27V185.51L217.77 186.01H209.4ZM273.6 574.31 279.6 577.31 273.6 580.31Z"/>
<path transform="matrix(1,0,0,-1,0,841.92)" d="M259.8 603.14H369.59999V623.54006H259.8Z" fill="#ffe699" fill-rule="evenodd"/>
<path transform="matrix(1,0,0,-1,0,841.92)" stroke-width="1" stroke-linecap="butt" stroke-miterlimit="10" stroke-linejoin="miter" fill="none" stroke="#000000" d="M259.8 603.14H369.59999V623.54006H259.8Z"/>
<g clip-path="url(#clip_72)">
<g clip-path="url(#clip_73)">
<text xml:space="preserve" transform="matrix(1 0 -0 1 0 841.92)" font-size="11.04" font-family="Calibri" font-weight="bold"><tspan y="-608.98" x="267.53 272.45384 278.33815 282.29045 284.78547 290.65876 294.53379 300.4181 304.13856 309.5371 312.28608 318.17039 320.6654 326.69325 332.21327 336.77278 342.2928 348.1771 351.89756 357.78187">For Protein Receptor</tspan></text>
</g>
<g clip-path="url(#clip_74)">
<text xml:space="preserve" transform="matrix(1 0 -0 1 0 841.92)" font-size="11.04" font-family="Calibri" font-weight="bold"><tspan y="-608.98" x="361.75"> </tspan></text>
</g>
</g>
<path transform="matrix(1,0,0,-1,0,841.92)" stroke-width="1" stroke-linecap="butt" stroke-miterlimit="10" stroke-linejoin="miter" fill="none" stroke="#172c51" d="M236.4 133.93H428.4V658.93H236.4Z"/>
<path transform="matrix(1,0,0,-1,0,841.92)" d="M248.4 646.32H301.8V670.92H248.4Z" fill="#ffffff" fill-rule="evenodd"/>
<path transform="matrix(1,0,0,-1,0,841.92)" stroke-width="1.5" stroke-linecap="butt" stroke-miterlimit="10" stroke-linejoin="miter" fill="none" stroke="#000000" d="M248.4 646.32H301.8V670.92H248.4Z"/>
<g clip-path="url(#clip_75)">
<g clip-path="url(#clip_76)">
<text xml:space="preserve" transform="matrix(1 0 -0 1 0 841.92)" font-size="14.04" font-family="Calibri" font-weight="bold"><tspan y="-653.26" x="256.37 263.01094 267.64414 274.70628 282.24577">Step </tspan></text>
</g>
<g clip-path="url(#clip_77)">
<text xml:space="preserve" transform="matrix(1 0 -0 1 0 841.92)" font-size="14.04" font-family="Calibri" font-weight="bold"><tspan y="-653.26" x="285.41">2</tspan></text>
</g>
<g clip-path="url(#clip_78)">
<text xml:space="preserve" transform="matrix(1 0 -0 1 0 841.92)" font-size="14.04" font-family="Calibri" font-weight="bold"><tspan y="-653.26" x="292.49"> </tspan></text>
</g>
<g clip-path="url(#clip_79)">
<text xml:space="preserve" transform="matrix(1 0 -0 1 0 841.92)" font-size="14.04" font-family="Calibri" font-weight="bold"><tspan y="-653.26" x="295.61"> </tspan></text>
</g>
</g>
<path transform="matrix(1,0,0,-1,0,841.92)" d="M474.6 403.63C474.6 407.44 477.69 410.53 481.5 410.53H570.3C574.11 410.53 577.2 407.44 577.2 403.63V376.03C577.2 372.22 574.11 369.13 570.3 369.13H481.5C477.69 369.13 474.6 372.22 474.6 376.03Z" fill="#c5e0b4" fill-rule="evenodd"/>
<path transform="matrix(1,0,0,-1,0,841.92)" stroke-width="1" stroke-linecap="butt" stroke-miterlimit="10" stroke-linejoin="miter" fill="none" stroke="#172c51" d="M474.6 403.63C474.6 407.44 477.69 410.53 481.5 410.53H570.3C574.11 410.53 577.2 407.44 577.2 403.63V376.03C577.2 372.22 574.11 369.13 570.3 369.13H481.5C477.69 369.13 474.6 372.22 474.6 376.03Z"/>
<g clip-path="url(#clip_80)">
<g clip-path="url(#clip_81)">
<text xml:space="preserve" transform="matrix(1 0 -0 1 0 841.92)" font-size="11.04" font-family="Calibri" font-weight="bold"><tspan y="-393.89" x="503.86 509.73326 515.6176 521.5019 524.56 527.61807 532.8952 535.53378 539.3646 544.432 548.1304">Config.txt </tspan></text>
</g>
<g clip-path="url(#clip_82)">
<text xml:space="preserve" transform="matrix(1 0 -0 1 0 841.92)" font-size="11.04" font-family="Calibri" font-weight="bold"><tspan y="-379.37" x="501.22 506.3757 511.89573 517.78 523.3 527.02047 532.419 535.6482 538.8774 544.78378 550.668 553.1631 555.5919">generation   </tspan></text>
</g>
<g clip-path="url(#clip_83)">
<text xml:space="preserve" transform="matrix(1 0 -0 1 0 841.92)" font-size="11.04" font-family="Calibri" font-weight="bold"><tspan y="-379.37" x="557.98"> </tspan></text>
</g>
</g>
<path transform="matrix(1,0,0,-1,0,841.92)" d="M475.2 298.6C475.2 302.41 478.29 305.5 482.1 305.5H570.9C574.71 305.5 577.8 302.41 577.8 298.6V271C577.8 267.19 574.71 264.1 570.9 264.1H482.1C478.29 264.1 475.2 267.19 475.2 271Z" fill="#c5e0b4" fill-rule="evenodd"/>
<path transform="matrix(1,0,0,-1,0,841.92)" stroke-width="1" stroke-linecap="butt" stroke-miterlimit="10" stroke-linejoin="miter" fill="none" stroke="#172c51" d="M475.2 298.6C475.2 302.41 478.29 305.5 482.1 305.5H570.9C574.71 305.5 577.8 302.41 577.8 298.6V271C577.8 267.19 574.71 264.1 570.9 264.1H482.1C478.29 264.1 475.2 267.19 475.2 271Z"/>
<g clip-path="url(#clip_84)">
<g clip-path="url(#clip_85)">
<text xml:space="preserve" transform="matrix(1 0 -0 1 0 841.92)" font-size="11.04" font-family="Calibri" font-weight="bold"><tspan y="-288.89" x="508.3 515.2552 521.1395 525.6991 530.9983 533.7141 539.6426 544.87557">Docking </tspan></text>
</g>
<g clip-path="url(#clip_86)">
<text xml:space="preserve" transform="matrix(1 0 -0 1 0 841.92)" font-size="11.04" font-family="Calibri" font-weight="bold"><tspan y="-274.37" x="503.5 510.96305 516.8253 522.3453 526.06576 531.4643 534.6935 537.92269 543.82907 549.7133 552.2084 554.7476">Operation   </tspan></text>
</g>
<g clip-path="url(#clip_87)">
<text xml:space="preserve" transform="matrix(1 0 -0 1 0 841.92)" font-size="11.04" font-family="Calibri" font-weight="bold"><tspan y="-274.37" x="557.14"> </tspan></text>
</g>
</g>
<path transform="matrix(1,0,0,-1,0,841.92)" d="M478.2 229.25C478.2 233.06 481.29 236.15 485.1 236.15H573.9C577.71 236.15 580.8 233.06 580.8 229.25V201.65C580.8 197.84 577.71 194.75 573.9 194.75H485.1C481.29 194.75 478.2 197.84 478.2 201.65Z" fill="#c5e0b4" fill-rule="evenodd"/>
<path transform="matrix(1,0,0,-1,0,841.92)" stroke-width="1" stroke-linecap="butt" stroke-miterlimit="10" stroke-linejoin="miter" fill="none" stroke="#172c51" d="M478.2 229.25C478.2 233.06 481.29 236.15 485.1 236.15H573.9C577.71 236.15 580.8 233.06 580.8 229.25V201.65C580.8 197.84 577.71 194.75 573.9 194.75H485.1C481.29 194.75 478.2 197.84 478.2 201.65Z"/>
<g clip-path="url(#clip_88)">
<g clip-path="url(#clip_89)">
<text xml:space="preserve" transform="matrix(1 0 -0 1 0 841.92)" font-size="11.04" font-family="Calibri" font-weight="bold"><tspan y="-219.5" x="495.46 501.4547 506.97474 511.4018 517.2861 520.03506 523.8659 526.38308 533.0733 539.0018 544.37826 547.1272 552.1725 556.59957 559.2381 563.66519">Result Analysis </tspan></text>
</g>
<g clip-path="url(#clip_90)">
<text xml:space="preserve" transform="matrix(1 0 -0 1 0 841.92)" font-size="11.04" font-family="Calibri" font-weight="bold"><tspan y="-204.98" x="491.98 497.37858 503.26289 509.1472 511.6422 518.1669 520.8827 525.33187 531.2161 536.6147 539.36367 543.55886 548.9574 552.1866 555.4158 561.32217">and Visuaization</tspan></text>
</g>
<g clip-path="url(#clip_91)">
<text xml:space="preserve" transform="matrix(1 0 -0 1 0 841.92)" font-size="11.04" font-family="Calibri" font-weight="bold"><tspan y="-204.98" x="567.24 569.76 572.28">   </tspan></text>
</g>
<g clip-path="url(#clip_92)">
<text xml:space="preserve" transform="matrix(1 0 -0 1 0 841.92)" font-size="11.04" font-family="Calibri" font-weight="bold"><tspan y="-204.98" x="574.68"> </tspan></text>
</g>
</g>
<path transform="matrix(1,0,0,-1,0,841.92)" d="M402 276.24H447.42V385.94L446.92 385.44H470.2V386.44H446.42V276.74L446.92 277.24H402ZM469.2 382.94 475.2 385.94 469.2 388.94Z"/>
<path transform="matrix(1,0,0,-1,0,841.92)" d="M527.9 369.1 528.45 311.1H527.45L526.9 369.1ZM530.94 312.13 528 306.1 524.94 312.07Z"/>
<path transform="matrix(1,0,0,-1,0,841.92)" d="M530.3 264.14V240.94H529.3V264.14ZM532.8 241.94 529.8 235.94 526.8 241.94Z"/>
<path transform="matrix(1,0,0,-1,0,841.92)" stroke-width="1" stroke-linecap="butt" stroke-miterlimit="10" stroke-linejoin="miter" fill="none" stroke="#172c51" d="M461.4 133.91H588V445.31H461.4Z"/>
<path transform="matrix(1,0,0,-1,0,841.92)" d="M475.8 433.31H529.2V457.91H475.8Z" fill="#ffffff" fill-rule="evenodd"/>
<path transform="matrix(1,0,0,-1,0,841.92)" stroke-width="1.5" stroke-linecap="butt" stroke-miterlimit="10" stroke-linejoin="miter" fill="none" stroke="#000000" d="M475.8 433.31H529.2V457.91H475.8Z"/>
<g clip-path="url(#clip_93)">
<g clip-path="url(#clip_94)">
<text xml:space="preserve" transform="matrix(1 0 -0 1 0 841.92)" font-size="14.04" font-family="Calibri" font-weight="bold"><tspan y="-440.23" x="483.82 490.46095 495.09416 502.15629 509.69578">Step </tspan></text>
</g>
<g clip-path="url(#clip_95)">
<text xml:space="preserve" transform="matrix(1 0 -0 1 0 841.92)" font-size="14.04" font-family="Calibri" font-weight="bold"><tspan y="-440.23" x="512.86">3</tspan></text>
</g>
<g clip-path="url(#clip_96)">
<text xml:space="preserve" transform="matrix(1 0 -0 1 0 841.92)" font-size="14.04" font-family="Calibri" font-weight="bold"><tspan y="-440.23" x="519.94"> </tspan></text>
</g>
<g clip-path="url(#clip_97)">
<text xml:space="preserve" transform="matrix(1 0 -0 1 0 841.92)" font-size="14.04" font-family="Calibri" font-weight="bold"><tspan y="-440.23" x="523.06"> </tspan></text>
</g>
</g>
<path transform="matrix(1,0,0,-1,0,841.92)" d="M119.1 613.9V605.3H118.1V613.9ZM121.6 606.3 118.6 600.3 115.6 606.3Z"/>
<path transform="matrix(1,0,0,-1,0,841.92)" d="M267 702.14H570.6V754.94H267Z" fill="#ffffff" fill-rule="evenodd"/>
<path transform="matrix(1,0,0,-1,0,841.92)" stroke-width="1.5" stroke-linecap="butt" stroke-miterlimit="10" stroke-linejoin="miter" fill="none" stroke="#000000" d="M267 702.14H570.6V754.94H267Z"/>
<g clip-path="url(#clip_98)">
<g clip-path="url(#clip_99)">
<text xml:space="preserve" transform="matrix(1 0 -0 1 0 841.92)" font-size="11.04" font-family="Calibri" font-weight="bold"><tspan y="-740.14" x="274.97 280.12568 283.84614 289.36616 295.25047 297.74549 303.39799 306.40086 308.89588 314.76918 318.6442 324.5285 328.24897 333.64753 336.39649 342.2808 344.77583 350.80366 356.32368 360.88319 366.4032 372.2875 376.00798 381.89228 385.84458 388.3396 393.79338 399.64457 405.52888 408.0239 412.7159 415.46488 420.51017 425.90873 431.79304 437.67735 442.1044 444.59944 451.55464 457.33958 465.60853 471.49284 474.2418 480.1261 485.52467 491.40898 493.904 499.35777 505.20896 511.09327 513.5883 519.49478 524.8933 527.6423 530.39126 536.2755 541.6741 544.90328 548.13247 554.0388">Step 1: Protein Receptor and Ligands Download and Validation</tspan></text>
</g>
<g clip-path="url(#clip_100)">
<text xml:space="preserve" transform="matrix(1 0 -0 1 0 841.92)" font-size="11.04" font-family="Calibri" font-weight="bold"><tspan y="-740.14" x="559.9"> </tspan></text>
</g>
<g clip-path="url(#clip_101)">
<text xml:space="preserve" transform="matrix(1 0 -0 1 0 841.92)" font-size="11.04" font-family="Calibri" font-weight="bold"><tspan y="-726.7" x="274.97 280.12568 283.84614 289.36616 295.25047 297.74549 303.39799 306.40086 308.89588 314.76918 318.6442 324.5285 328.24897 333.64753 336.39649 342.2808 344.77583 350.80366 356.32368 360.88319 366.4032 372.2875 376.00798 381.89228 385.84458 388.3396 393.79338 399.64457 405.52888 408.0239 412.7159 415.46488 420.51017 425.90873 431.79304 437.67735 442.1044 444.59944 450.47273 454.34776 459.86778 465.75209 471.15065 474.74967 480.14823 483.3774 486.60664 492.51304 498.39735">Step 2: Protein Receptor and Ligands Preparations</tspan></text>
</g>
<g clip-path="url(#clip_102)">
<text xml:space="preserve" transform="matrix(1 0 -0 1 0 841.92)" font-size="11.04" font-family="Calibri" font-weight="bold"><tspan y="-726.7" x="502.78"> </tspan></text>
</g>
<g clip-path="url(#clip_103)">
<text xml:space="preserve" transform="matrix(1 0 -0 1 0 841.92)" font-size="11.04" font-family="Calibri" font-weight="bold"><tspan y="-713.26" x="274.97 280.12568 283.84614 289.36616 295.25047 297.74549 303.39799 306.40086 308.89588 314.79124 320.67555 326.55986 329.61793 332.55458 337.82066 340.45924 344.2901 349.35746 353.18833 355.58399 360.7397 366.2597 372.144 377.66404 381.3845 386.78306 390.01225 393.1421 399.0264 404.9107 407.75904 410.29823 417.25343 423.13774 427.69725 432.99644 435.71229 441.64076 446.87373 449.40187 456.8649 462.7271 468.24714 471.84617 477.24473 480.4739 483.70314 489.60954 495.49385 497.98887 503.44264 509.29383 515.1781 517.67318 525.13619 531.02047 534.8513 540.7356 546.6199">Step 3: Config.txt generation, Docking Operation and Output</tspan></text>
</g>
<g clip-path="url(#clip_104)">
<text xml:space="preserve" transform="matrix(1 0 -0 1 0 841.92)" font-size="11.04" font-family="Calibri" font-weight="bold"><tspan y="-713.26" x="550.54"> </tspan></text>
</g>
</g>
<path transform="matrix(1,0,0,-1,0,841.92)" d="M29.1 199.41C29.1 209.62 37.383 217.91 47.601 217.91H189.4C199.62 217.91 207.9 209.62 207.9 199.41V125.41C207.9 115.19 199.62 106.91 189.4 106.91H47.601C37.383 106.91 29.1 115.19 29.1 125.41Z" fill="#d9d9d9" fill-rule="evenodd"/>
<path transform="matrix(1,0,0,-1,0,841.92)" stroke-width="2.25" stroke-linecap="butt" stroke-dasharray="9,6.75" stroke-miterlimit="10" stroke-linejoin="miter" fill="none" stroke="#172c51" d="M29.1 199.41C29.1 209.62 37.383 217.91 47.601 217.91H189.4C199.62 217.91 207.9 209.62 207.9 199.41V125.41C207.9 115.19 199.62 106.91 189.4 106.91H47.601C37.383 106.91 29.1 115.19 29.1 125.41Z"/>
<g clip-path="url(#clip_105)">
<g clip-path="url(#clip_106)">
<text xml:space="preserve" transform="matrix(1 0 -0 1 0 841.92)" font-size="14.04" font-family="Calibri" font-weight="bold"><tspan y="-194.3" x="82.824 89.46492 94.09812 101.16024 108.61548 114.21744 117.39048 124.81764 132.37117 139.81237 143.70145 147.59052">Steps Config</tspan></text>
</g>
<g clip-path="url(#clip_107)">
<text xml:space="preserve" transform="matrix(1 0 -0 1 0 841.92)" font-size="14.04" font-family="Calibri" font-weight="bold"><tspan y="-194.3" x="154.1"> </tspan></text>
</g>
<g clip-path="url(#clip_108)">
<text xml:space="preserve" transform="matrix(1 0 -0 1 0 841.92)" font-size="14.04" font-family="Calibri" font-weight="bold"><tspan y="-177.26" x="51.48 60.606 64.35468 67.44348 74.28096 80.72532 88.30692 95.86044 101.490489 108.45432 115.993808 119.16685 126.70633 133.64209 138.21913 145.15489 156.56941 163.53325 168.09626 175.15837 179.97409">UI exposed parameters</tspan></text>
</g>
<g clip-path="url(#clip_109)">
<text xml:space="preserve" transform="matrix(1 0 -0 1 0 841.92)" font-size="14.04" font-family="Calibri" font-weight="bold"><tspan y="-177.26" x="185.57"> </tspan></text>
</g>
<g clip-path="url(#clip_110)">
<text xml:space="preserve" transform="matrix(1 0 -0 1 0 841.92)" font-size="11.04" font-family="Symbol"><tspan y="-162.5" x="60.864">&#x2022;</tspan></text>
</g>
<g clip-path="url(#clip_111)">
<text xml:space="preserve" transform="matrix(1 0 -0 1 0 841.92)" font-size="11.04" font-family="Arial"><tspan y="-162.5" x="65.904"> </tspan></text>
</g>
<g clip-path="url(#clip_112)">
<text xml:space="preserve" transform="matrix(1 0 -0 1 0 841.92)" font-size="11.04" font-family="Calibri" font-weight="bold"><tspan y="-162.5" x="78.864 84.25152 89.31888 95.18112 100.57968 106.464008 110.78065 114.00985 117.239048 122.41681 127.93681 133.82114 139.34113 143.76816">Exhaustiveness</tspan></text>
</g>
<g clip-path="url(#clip_113)">
<text xml:space="preserve" transform="matrix(1 0 -0 1 0 841.92)" font-size="11.04" font-family="Calibri" font-weight="bold"><tspan y="-162.5" x="148.1"> </tspan></text>
</g>
<g clip-path="url(#clip_114)">
<text xml:space="preserve" transform="matrix(1 0 -0 1 0 841.92)" font-size="11.04" font-family="Symbol"><tspan y="-148.46" x="60.864">&#x2022;</tspan></text>
</g>
<g clip-path="url(#clip_115)">
<text xml:space="preserve" transform="matrix(1 0 -0 1 0 841.92)" font-size="11.04" font-family="Arial"><tspan y="-148.46" x="65.904"> </tspan></text>
</g>
<g clip-path="url(#clip_116)">
<text xml:space="preserve" transform="matrix(1 0 -0 1 0 841.92)" font-size="11.04" font-family="Calibri" font-weight="bold"><tspan y="-148.46" x="78.864 86.17248 92.0568 101.03232 106.9608 112.458728 116.41104 118.90608 124.812488 128.30113 130.79618 136.72466 142.57585 147.00289 152.52288">Number of poses</tspan></text>
</g>
<g clip-path="url(#clip_117)">
<text xml:space="preserve" transform="matrix(1 0 -0 1 0 841.92)" font-size="11.04" font-family="Calibri" font-weight="bold"><tspan y="-148.46" x="156.86"> </tspan></text>
</g>
<g clip-path="url(#clip_118)">
<text xml:space="preserve" transform="matrix(1 0 -0 1 0 841.92)" font-size="11.04" font-family="Symbol"><tspan y="-134.42" x="60.864">&#x2022;</tspan></text>
</g>
<g clip-path="url(#clip_119)">
<text xml:space="preserve" transform="matrix(1 0 -0 1 0 841.92)" font-size="11.04" font-family="Arial"><tspan y="-134.42" x="65.904"> </tspan></text>
</g>
<g clip-path="url(#clip_120)">
<text xml:space="preserve" transform="matrix(1 0 -0 1 0 841.92)" font-size="11.04" font-family="Calibri" font-weight="bold"><tspan y="-134.42" x="78.864 84.25152 90.14688 95.666889 99.508808 104.66449 109.93057 112.42561 116.16817 121.56673 127.45105 132.60672">Energy range</tspan></text>
</g>
<g clip-path="url(#clip_121)">
<text xml:space="preserve" transform="matrix(1 0 -0 1 0 841.92)" font-size="11.04" font-family="Calibri" font-weight="bold"><tspan y="-134.42" x="138.02"> </tspan></text>
</g>
<g clip-path="url(#clip_122)">
<text xml:space="preserve" transform="matrix(1 0 -0 1 0 841.92)" font-size="11.04" font-family="Symbol"><tspan y="-120.38" x="60.864">&#x2022;</tspan></text>
</g>
<g clip-path="url(#clip_123)">
<text xml:space="preserve" transform="matrix(1 0 -0 1 0 841.92)" font-size="11.04" font-family="Arial"><tspan y="-120.38" x="65.904"> </tspan></text>
</g>
<g clip-path="url(#clip_124)">
<text xml:space="preserve" transform="matrix(1 0 -0 1 0 841.92)" font-size="11.04" font-family="Calibri" font-weight="bold"><tspan y="-120.38" x="78.864 84.019687 89.53969 95.05969 100.944019 103.43906 106.9277 111.995059 114.7109 119.52434 125.04434 130.92867 133.4237 139.3301 143.28243 145.77747 152.02611 157.42467 163.30899 169.19332 175.07762 184.05315">Seed (Fixed or Random)</tspan></text>
</g>
<g clip-path="url(#clip_125)">
<text xml:space="preserve" transform="matrix(1 0 -0 1 0 841.92)" font-size="11.04" font-family="Calibri" font-weight="bold"><tspan y="-120.38" x="187.49"> </tspan></text>
</g>
</g>
<path transform="matrix(1,0,0,-1,0,841.92)" d="M27.9 76.042C27.9 81.51 32.332 85.943 37.8 85.943H196.8C202.27 85.943 206.7 81.51 206.7 76.042V36.443C206.7 30.975 202.27 26.543 196.8 26.543H37.8C32.332 26.543 27.9 30.975 27.9 36.443Z" fill="#ffd966" fill-rule="evenodd"/>
<path transform="matrix(1,0,0,-1,0,841.92)" stroke-width="1" stroke-linecap="butt" stroke-miterlimit="10" stroke-linejoin="miter" fill="none" stroke="#172c51" d="M27.9 76.042C27.9 81.51 32.332 85.943 37.8 85.943H196.8C202.27 85.943 206.7 81.51 206.7 76.042V36.443C206.7 30.975 202.27 26.543 196.8 26.543H37.8C32.332 26.543 27.9 30.975 27.9 36.443Z"/>
<g clip-path="url(#clip_126)">
<g clip-path="url(#clip_127)">
<text xml:space="preserve" transform="matrix(1 0 -0 1 0 841.92)" font-size="14.04" font-family="Calibri" font-weight="bold"><tspan y="-65.544" x="51.6 59.50452 62.95836 70.42764 77.967128 81.44905 88.98853 95.64349 98.73229 105.58382 113.1233 120.18542 125.015178 131.61397 138.21276 141.32962 150.82067 158.36014 163.17586 170.61705 178.15653">Binding Energy Output</tspan></text>
</g>
<g clip-path="url(#clip_128)">
<text xml:space="preserve" transform="matrix(1 0 -0 1 0 841.92)" font-size="14.04" font-family="Calibri" font-weight="bold"><tspan y="-65.544" x="183.02"> </tspan></text>
</g>
<g clip-path="url(#clip_129)">
<text xml:space="preserve" transform="matrix(1 0 -0 1 0 841.92)" font-size="11.04" font-family="Symbol"><tspan y="-50.664" x="56.52">&#x2022;</tspan></text>
</g>
<g clip-path="url(#clip_130)">
<text xml:space="preserve" transform="matrix(1 0 -0 1 0 841.92)" font-size="11.04" font-family="Arial"><tspan y="-50.664" x="61.584"> </tspan></text>
</g>
<g clip-path="url(#clip_131)">
<text xml:space="preserve" transform="matrix(1 0 -0 1 0 841.92)" font-size="11.04" font-family="Calibri" font-weight="bold"><tspan y="-50.664" x="74.544 80.417278 86.3016 89.05056 94.93488 100.81921 104.77152 107.26656 111.88129 117.73249 123.61681 126.365779 132.25009">Colour coding</tspan></text>
</g>
<g clip-path="url(#clip_132)">
<text xml:space="preserve" transform="matrix(1 0 -0 1 0 841.92)" font-size="11.04" font-family="Calibri" font-weight="bold"><tspan y="-50.664" x="137.42"> </tspan></text>
</g>
<g clip-path="url(#clip_133)">
<text xml:space="preserve" transform="matrix(1 0 -0 1 0 841.92)" font-size="11.04" font-family="Symbol"><tspan y="-36.6" x="56.52">&#x2022;</tspan></text>
</g>
<g clip-path="url(#clip_134)">
<text xml:space="preserve" transform="matrix(1 0 -0 1 0 841.92)" font-size="11.04" font-family="Arial"><tspan y="-36.6" x="61.584"> </tspan></text>
</g>
<g clip-path="url(#clip_135)">
<text xml:space="preserve" transform="matrix(1 0 -0 1 0 841.92)" font-size="11.04" font-family="Calibri" font-weight="bold"><tspan y="-36.6" x="74.544 80.77056 83.51952 89.40385 95.28817 98.03713 103.80001 109.06609 111.561138 117.34609 122.74465 126.46513 131.8637 137.01937 142.90367 146.856">Binding Category</tspan></text>
</g>
<g clip-path="url(#clip_136)">
<text xml:space="preserve" transform="matrix(1 0 -0 1 0 841.92)" font-size="11.04" font-family="Calibri" font-weight="bold"><tspan y="-36.6" x="152.06"> </tspan></text>
</g>
</g>
<path transform="matrix(1,0,0,-1,0,841.92)" d="M207.9 150.82H245.76V184.92L245.26 184.42H266.8V185.42H244.76V151.32L245.26 151.82H207.9ZM265.8 181.92 271.8 184.92 265.8 187.92Z"/>
<path transform="matrix(1,0,0,-1,0,841.92)" d="M119.5 687.13 118.96 643.53 119.96 643.51 120.5 687.11ZM116.47 644.56 119.4 638.52 122.47 644.48Z"/>
<path transform="matrix(1,0,0,-1,0,841.92)" d="M260.4 297.12H373.2V318.12H260.4Z" fill="#ffe699" fill-rule="evenodd"/>
<path transform="matrix(1,0,0,-1,0,841.92)" stroke-width="1" stroke-linecap="butt" stroke-miterlimit="10" stroke-linejoin="miter" fill="none" stroke="#000000" d="M260.4 297.12H373.2V318.12H260.4Z"/>
<g clip-path="url(#clip_137)">
<g clip-path="url(#clip_138)">
<text xml:space="preserve" transform="matrix(1 0 -0 1 0 841.92)" font-size="11.04" font-family="Calibri" font-weight="bold"><tspan y="-303.53" x="268.13 273.05384 278.93815 282.89045 285.38548 290.07749 292.82646 297.87174 303.2703 309.1546 315.0389 317.53395 327.1829 333.0341 335.78306 341.30308 345.86259 351.7469 354.49586 360.01588">For Ligand Molecules</tspan></text>
</g>
<g clip-path="url(#clip_139)">
<text xml:space="preserve" transform="matrix(1 0 -0 1 0 841.92)" font-size="11.04" font-family="Calibri"><tspan y="-303.53" x="364.39"> </tspan></text>
</g>
</g>
<path transform="matrix(1,0,0,-1,0,841.92)" d="M406.2 395.44 469.6 394.88V393.88L406.2 394.44ZM468.63 397.39 474.6 394.34 468.57 391.39Z"/>
<path transform="matrix(1,0,0,-1,0,841.92)" d="M277.8 586.61C277.8 590.09 280.62 592.91 284.1 592.91H392.7C396.18 592.91 399 590.09 399 586.61V561.41C399 557.93 396.18 555.11 392.7 555.11H284.1C280.62 555.11 277.8 557.93 277.8 561.41Z" fill="#ffffff" fill-rule="evenodd"/>
<path transform="matrix(1,0,0,-1,0,841.92)" stroke-width="1" stroke-linecap="butt" stroke-miterlimit="10" stroke-linejoin="miter" fill="none" stroke="#172c51" d="M277.8 586.61C277.8 590.09 280.62 592.91 284.1 592.91H392.7C396.18 592.91 399 590.09 399 586.61V561.41C399 557.93 396.18 555.11 392.7 555.11H284.1C280.62 555.11 277.8 557.93 277.8 561.41Z"/>
<g clip-path="url(#clip_140)">
<g clip-path="url(#clip_141)">
<text xml:space="preserve" transform="matrix(1 0 -0 1 0 841.92)" font-size="11.04" font-family="Calibri" font-weight="bold"><tspan y="-576.43" x="306.05 311.20567 316.72569 319.47465 324.99467 329.55418 333.38505 335.90217 341.77543 347.65974 353.0583 355.80726 361.69157 364.18659 370.921">Select Chain A </tspan></text>
</g>
<g clip-path="url(#clip_142)">
<text xml:space="preserve" transform="matrix(1 0 -0 1 0 841.92)" font-size="11.04" font-family="Calibri" font-weight="bold"><tspan y="-576.43" x="373.39"> </tspan></text>
</g>
<g clip-path="url(#clip_143)">
<text xml:space="preserve" transform="matrix(1 0 -0 1 0 841.92)" font-size="11.04" font-family="Calibri" font-weight="bold"><tspan y="-562.03" x="289.85 293.3166 300.2718 305.82493 308.54078 313.96144 317.6819 323.2019 325.69694 333.15998 336.99085 342.8862 348.40623 352.35853 354.85356 359.46827 365.31947 370.71803 373.46699 379.3513 383.66795">(Delete Other chains)</tspan></text>
</g>
<g clip-path="url(#clip_144)">
<text xml:space="preserve" transform="matrix(1 0 -0 1 0 841.92)" font-size="11.04" font-family="Calibri" font-weight="bold"><tspan y="-562.03" x="387.07"> </tspan></text>
</g>
</g>
<path transform="matrix(1,0,0,-1,0,841.92)" d="M275.4 530.98C275.4 533.13 277.15 534.88 279.3 534.88H398.1C400.25 534.88 402 533.13 402 530.98V515.38C402 513.22 400.25 511.48 398.1 511.48H279.3C277.15 511.48 275.4 513.22 275.4 515.38Z" fill="#ffffff" fill-rule="evenodd"/>
<path transform="matrix(1,0,0,-1,0,841.92)" stroke-width="1" stroke-linecap="butt" stroke-miterlimit="10" stroke-linejoin="miter" fill="none" stroke="#172c51" d="M275.4 530.98C275.4 533.13 277.15 534.88 279.3 534.88H398.1C400.25 534.88 402 533.13 402 530.98V515.38C402 513.22 400.25 511.48 398.1 511.48H279.3C277.15 511.48 275.4 513.22 275.4 515.38Z"/>
<g clip-path="url(#clip_145)">
<g clip-path="url(#clip_146)">
<text xml:space="preserve" transform="matrix(1 0 -0 1 0 841.92)" font-size="11.04" font-family="Calibri" font-weight="bold"><tspan y="-519.07" x="284.69 290.68473 296.20475 305.18028 311.08668 316.24235 321.76237 324.2574 333.76283 339.5257 345.03468 350.31178 356.52729 359.05543 362.89735 368.2959 372.72297 375.47193 381.35624 387.24055">Remove WATER residue</tspan></text>
</g>
<g clip-path="url(#clip_147)">
<text xml:space="preserve" transform="matrix(1 0 -0 1 0 841.92)" font-size="11.04" font-family="Calibri" font-weight="bold"><tspan y="-519.07" x="392.71"> </tspan></text>
</g>
</g>
<path transform="matrix(1,0,0,-1,0,841.92)" d="M275.7 487.04C275.7 489.2 277.45 490.94 279.6 490.94H398.4C400.55 490.94 402.3 489.2 402.3 487.04V471.44C402.3 469.29 400.55 467.54 398.4 467.54H279.6C277.45 467.54 275.7 469.29 275.7 471.44Z" fill="#ffffff" fill-rule="evenodd"/>
<path transform="matrix(1,0,0,-1,0,841.92)" stroke-width="1" stroke-linecap="butt" stroke-miterlimit="10" stroke-linejoin="miter" fill="none" stroke="#172c51" d="M275.7 487.04C275.7 489.2 277.45 490.94 279.6 490.94H398.4C400.55 490.94 402.3 489.2 402.3 487.04V471.44C402.3 469.29 400.55 467.54 398.4 467.54H279.6C277.45 467.54 275.7 469.29 275.7 471.44Z"/>
<g clip-path="url(#clip_148)">
<g clip-path="url(#clip_149)">
<text xml:space="preserve" transform="matrix(1 0 -0 1 0 841.92)" font-size="11.04" font-family="Calibri" font-weight="bold"><tspan y="-475.15" x="306.41 313.10026 319.02873 324.89094 327.38597 334.3522 339.52998 345.41429 349.2562 355.01908 360.17478 365.6948 371.5791">Add Hydrogen </tspan></text>
</g>
<g clip-path="url(#clip_150)">
<text xml:space="preserve" transform="matrix(1 0 -0 1 0 841.92)" font-size="11.04" font-family="Calibri" font-weight="bold"><tspan y="-475.15" x="373.99"> </tspan></text>
</g>
</g>
<path transform="matrix(1,0,0,-1,0,841.92)" d="M277.5 442.6C277.5 444.76 279.25 446.5 281.4 446.5H400.2C402.35 446.5 404.1 444.76 404.1 442.6V427C404.1 424.85 402.35 423.1 400.2 423.1H281.4C279.25 423.1 277.5 424.85 277.5 427Z" fill="#ffffff" fill-rule="evenodd"/>
<path transform="matrix(1,0,0,-1,0,841.92)" stroke-width="1" stroke-linecap="butt" stroke-miterlimit="10" stroke-linejoin="miter" fill="none" stroke="#172c51" d="M277.5 442.6C277.5 444.76 279.25 446.5 281.4 446.5H400.2C402.35 446.5 404.1 444.76 404.1 442.6V427C404.1 424.85 402.35 423.1 400.2 423.1H281.4C279.25 423.1 277.5 424.85 277.5 427Z"/>
<g clip-path="url(#clip_151)">
<g clip-path="url(#clip_152)">
<text xml:space="preserve" transform="matrix(1 0 -0 1 0 841.92)" font-size="11.04" font-family="Calibri" font-weight="bold"><tspan y="-430.75" x="289.49 296.18025 302.1087 307.97093 310.46595 317.56468 322.96324 327.27989 331.00035 336.3989 339.14787 344.30357 349.70213 353.65443 356.14945 362.0448 367.9291 373.32768 377.04814 382.20384 387.72386">Add Gasteiger Charges</tspan></text>
</g>
<g clip-path="url(#clip_153)">
<text xml:space="preserve" transform="matrix(1 0 -0 1 0 841.92)" font-size="11.04" font-family="Calibri" font-weight="bold"><tspan y="-430.75" x="392.11"> </tspan></text>
</g>
</g>
<path transform="matrix(1,0,0,-1,0,841.92)" d="M277.5 401.2C277.5 403.36 279.25 405.1 281.4 405.1H400.2C402.35 405.1 404.1 403.36 404.1 401.2V385.6C404.1 383.45 402.35 381.7 400.2 381.7H281.4C279.25 381.7 277.5 383.45 277.5 385.6Z" fill="#ffffff" fill-rule="evenodd"/>
<path transform="matrix(1,0,0,-1,0,841.92)" stroke-width="1" stroke-linecap="butt" stroke-miterlimit="10" stroke-linejoin="miter" fill="none" stroke="#172c51" d="M277.5 401.2C277.5 403.36 279.25 405.1 281.4 405.1H400.2C402.35 405.1 404.1 403.36 404.1 401.2V385.6C404.1 383.45 402.35 381.7 400.2 381.7H281.4C279.25 381.7 277.5 383.45 277.5 385.6Z"/>
<g clip-path="url(#clip_154)">
<g clip-path="url(#clip_155)">
<text xml:space="preserve" transform="matrix(1 0 -0 1 0 841.92)" font-size="11.04" font-family="Calibri" font-weight="bold"><tspan y="-389.33" x="292.25 297.40568 302.6828 307.83848 313.3585 315.85353 321.30729 325.71226 328.20729 334.13575 339.99797 345.88227 351.76658 355.59745 358.11457 361.47074 367.35505 371.30735 380.1835 385.58207">Save as pdbqt format</tspan></text>
</g>
<g clip-path="url(#clip_156)">
<text xml:space="preserve" transform="matrix(1 0 -0 1 0 841.92)" font-size="11.04" font-family="Calibri" font-weight="bold"><tspan y="-389.33" x="389.35"> </tspan></text>
</g>
</g>
<path transform="matrix(1,0,0,-1,0,841.92)" d="M270 284.23C270 286.38 271.75 288.13 273.9 288.13H398.1C400.25 288.13 402 286.38 402 284.23V268.63C402 266.47 400.25 264.73 398.1 264.73H273.9C271.75 264.73 270 266.47 270 268.63Z" fill="#ffffff" fill-rule="evenodd"/>
<path transform="matrix(1,0,0,-1,0,841.92)" stroke-width="1" stroke-linecap="butt" stroke-miterlimit="10" stroke-linejoin="miter" fill="none" stroke="#172c51" d="M270 284.23C270 286.38 271.75 288.13 273.9 288.13H398.1C400.25 288.13 402 286.38 402 284.23V268.63C402 266.47 400.25 264.73 398.1 264.73H273.9C271.75 264.73 270 266.47 270 268.63Z"/>
<g clip-path="url(#clip_157)">
<g clip-path="url(#clip_158)">
<text xml:space="preserve" transform="matrix(1 0 -0 1 0 841.92)" font-size="11.04" font-family="Calibri" font-weight="bold"><tspan y="-272.33" x="287.57 292.72569 298.0028 303.15849 308.6785 311.17353 316.6273 321.03227 323.52729 329.45576 335.31797 341.20228 347.08659 350.91746 353.43458 356.79075 362.67506 366.62736 375.5035 380.90208">Save as pdbqt format</tspan></text>
</g>
<g clip-path="url(#clip_159)">
<text xml:space="preserve" transform="matrix(1 0 -0 1 0 841.92)" font-size="11.04" font-family="Calibri" font-weight="bold"><tspan y="-272.33" x="384.67"> </tspan></text>
</g>
<g clip-path="url(#clip_160)">
<text fill="#ffffff" xml:space="preserve" transform="matrix(1 0 -0 1 0 841.92)" font-size="11.04" font-family="Calibri"><tspan y="-249.89" x="336.07"> </tspan></text>
</g>
</g>
<path transform="matrix(1,0,0,-1,0,841.92)" d="M268.8 242.23C268.8 244.38 270.55 246.13 272.7 246.13H396.9C399.05 246.13 400.8 244.38 400.8 242.23V226.63C400.8 224.47 399.05 222.73 396.9 222.73H272.7C270.55 222.73 268.8 224.47 268.8 226.63Z" fill="#ffffff" fill-rule="evenodd"/>
<path transform="matrix(1,0,0,-1,0,841.92)" stroke-width="1" stroke-linecap="butt" stroke-miterlimit="10" stroke-linejoin="miter" fill="none" stroke="#172c51" d="M268.8 242.23C268.8 244.38 270.55 246.13 272.7 246.13H396.9C399.05 246.13 400.8 244.38 400.8 242.23V226.63C400.8 224.47 399.05 222.73 396.9 222.73H272.7C270.55 222.73 268.8 224.47 268.8 226.63Z"/>
<g clip-path="url(#clip_161)">
<g clip-path="url(#clip_162)">
<text xml:space="preserve" transform="matrix(1 0 -0 1 0 841.92)" font-size="11.04" font-family="Calibri" font-weight="bold"><tspan y="-230.33" x="283.61 290.30024 296.2287 302.0909 304.58595 311.68467 317.08323 321.39988 325.12034 330.5189 333.26786 338.42356 343.8221 347.7744 350.26945 356.1648 362.0491 367.44767 371.16813 376.32383 381.84385">Add Gasteiger Charges</tspan></text>
</g>
<g clip-path="url(#clip_163)">
<text xml:space="preserve" transform="matrix(1 0 -0 1 0 841.92)" font-size="11.04" font-family="Calibri" font-weight="bold"><tspan y="-230.33" x="386.23"> </tspan></text>
</g>
</g>
<path transform="matrix(1,0,0,-1,0,841.92)" d="M271.2 193.63C271.2 195.78 272.95 197.53 275.1 197.53H396.3C398.45 197.53 400.2 195.78 400.2 193.63V178.03C400.2 175.87 398.45 174.13 396.3 174.13H275.1C272.95 174.13 271.2 175.87 271.2 178.03Z" fill="#ffffff" fill-rule="evenodd"/>
<path transform="matrix(1,0,0,-1,0,841.92)" stroke-width="1" stroke-linecap="butt" stroke-miterlimit="10" stroke-linejoin="miter" fill="none" stroke="#172c51" d="M271.2 193.63C271.2 195.78 272.95 197.53 275.1 197.53H396.3C398.45 197.53 400.2 195.78 400.2 193.63V178.03C400.2 175.87 398.45 174.13 396.3 174.13H275.1C272.95 174.13 271.2 175.87 271.2 178.03Z"/>
<g clip-path="url(#clip_164)">
<g clip-path="url(#clip_165)">
<text xml:space="preserve" transform="matrix(1 0 -0 1 0 841.92)" font-size="11.04" font-family="Calibri" font-weight="bold"><tspan y="-181.7" x="303.17 309.86027 315.78874 321.65095 324.14598 331.1122 336.28999 342.1743 346.0162 351.77909 356.93479 362.4548 368.3391 370.83415">Add Hydrogen  </tspan></text>
</g>
<g clip-path="url(#clip_166)">
<text xml:space="preserve" transform="matrix(1 0 -0 1 0 841.92)" font-size="11.04" font-family="Calibri" font-weight="bold"><tspan y="-181.7" x="373.27"> </tspan></text>
</g>
</g>
<path transform="matrix(1,0,0,-1,0,841.92)" d="M335.3 196.31V218.31H334.3V196.31ZM337.8 217.31 334.8 223.31 331.8 217.31Z"/>
<path transform="matrix(1,0,0,-1,0,841.92)" d="M335.3 245.54V260.94H334.3V245.54ZM337.8 259.94 334.8 265.94 331.8 259.94Z"/>
<path transform="matrix(1,0,0,-1,0,841.92)" d="M166.2 736.24H119.2L119.15 716.74 120.15 716.73 120.2 735.74 119.7 735.24H166.2ZM116.7 717.88 119.4 711.74 122.69 717.59Z"/>
<path transform="matrix(1,0,0,-1,0,841.92)" stroke-width="1" stroke-linecap="butt" stroke-miterlimit="10" stroke-linejoin="miter" fill="none" stroke="#000000" d="M166.2 744.74V736.34"/>
<path transform="matrix(1,0,0,-1,0,841.92)" d="M167.3 801.72V788.12H166.3V801.72ZM169.8 789.12 166.8 783.12 163.8 789.12Z"/>
<path transform="matrix(1,0,0,-1,0,841.92)" d="M339.5 555.12V539.12H338.5V555.12ZM342 540.12 339 534.12 336 540.12Z"/>
<path transform="matrix(1,0,0,-1,0,841.92)" d="M339.5 511.94V495.94H338.5V511.94ZM342 496.94 339 490.94 336 496.94Z"/>
<path transform="matrix(1,0,0,-1,0,841.92)" d="M340.1 467.5V451.5H339.1V467.5ZM342.6 452.5 339.6 446.5 336.6 452.5Z"/>
<path transform="matrix(1,0,0,-1,0,841.92)" d="M339.5 422.54 339.93 409.54 338.93 409.5 338.5 422.51ZM342.4 410.62 339.6 404.52 336.4 410.42Z"/>
<path transform="matrix(1,0,0,-1,0,841.92)" d="M511.18 53.543H549.02C553.98 53.543 558 46.961 558 38.843 558 30.724 553.98 24.143 549.02 24.143H511.18C506.22 24.143 502.2 30.724 502.2 38.843 502.2 46.961 506.22 53.543 511.18 53.543Z" fill="#4472c4" fill-rule="evenodd"/>
<path transform="matrix(1,0,0,-1,0,841.92)" stroke-width="1" stroke-linecap="butt" stroke-miterlimit="10" stroke-linejoin="miter" fill="none" stroke="#172c51" d="M511.18 53.543H549.02C553.98 53.543 558 46.961 558 38.843 558 30.724 553.98 24.143 549.02 24.143H511.18C506.22 24.143 502.2 30.724 502.2 38.843 502.2 46.961 506.22 53.543 511.18 53.543Z"/>
<g clip-path="url(#clip_167)">
<g clip-path="url(#clip_168)">
<text fill="#ffffff" xml:space="preserve" transform="matrix(1 0 -0 1 0 841.92)" font-size="12" font-family="Arial" font-weight="bold"><tspan y="-33.72" x="518.86 526.888 534.22">End</tspan></text>
</g>
<g clip-path="url(#clip_169)">
<text fill="#ffffff" xml:space="preserve" transform="matrix(1 0 -0 1 0 841.92)" font-size="12" font-family="Arial" font-weight="bold"><tspan y="-33.72" x="541.54"> </tspan></text>
</g>
<g clip-path="url(#clip_170)">
<text fill="#ffffff" xml:space="preserve" transform="matrix(1 0 -0 1 0 841.92)" font-size="12" font-family="Arial" font-weight="bold"><tspan y="-19.92" x="530.14"> </tspan></text>
</g>
</g>
<path transform="matrix(1,0,0,-1,0,841.92)" d="M207.2 59.543V38.543L206.7 39.043H497.2V38.043H206.2V59.543ZM496.2 41.543 502.2 38.543 496.2 35.543Z"/>
<path transform="matrix(1,0,0,-1,0,841.92)" d="M118.7 107.54V91.543H117.7V107.54ZM121.2 92.543 118.2 86.543 115.2 92.543Z"/>
<path transform="matrix(1,0,0,-1,0,841.92)" d="M118.7 559.92V551.32H117.7V559.92ZM121.2 552.32 118.2 546.32 115.2 552.32Z"/>
<path transform="matrix(1,0,0,-1,0,841.92)" d="M119.3 493.54V484.94H118.3V493.54ZM121.8 485.94 118.8 479.94 115.8 485.94Z"/>
<path transform="matrix(1,0,0,-1,0,841.92)" d="M119.9 440.77V432.17H118.9V440.77ZM122.4 433.17 119.4 427.17 116.4 433.17Z"/>
<path transform="matrix(1,0,0,-1,0,841.92)" d="M118.1 405.38V396.78H117.1V405.38ZM120.6 397.78 117.6 391.78 114.6 397.78Z"/>
<path transform="matrix(1,0,0,-1,0,841.92)" d="M32.4 321.5 117.45 356.75 202.5 321.5 117.45 286.25Z" fill="#92d050" fill-rule="evenodd"/>
<path transform="matrix(1,0,0,-1,0,841.92)" stroke-width="1" stroke-linecap="butt" stroke-miterlimit="10" stroke-linejoin="miter" fill="none" stroke="#172c51" d="M32.4 321.5 117.45 356.75 202.5 321.5 117.45 286.25Z"/>
<g clip-path="url(#clip_171)">
<g clip-path="url(#clip_172)">
<text xml:space="preserve" transform="matrix(1 0 -0 1 0 841.92)" font-size="11.04" font-family="Calibri" font-weight="bold"><tspan y="-324.53" x="89.424 92.41584 96.84288 99.33792 105.24432 110.64288 113.28145 116.03041 121.914737 127.19185 130.42105 133.65026 139.55664 145.44097">Is Validation </tspan></text>
</g>
<g clip-path="url(#clip_173)">
<text xml:space="preserve" transform="matrix(1 0 -0 1 0 841.92)" font-size="11.04" font-family="Calibri" font-weight="bold"><tspan y="-310.01" x="101.3 106.79792 112.4504 117.970409 126.01857 128.51361">&#x003e;90% ?</tspan></text>
</g>
<g clip-path="url(#clip_174)">
<text xml:space="preserve" transform="matrix(1 0 -0 1 0 841.92)" font-size="11.04" font-family="Calibri" font-weight="bold"><tspan y="-310.01" x="133.58"> </tspan></text>
</g>
</g>
<path transform="matrix(1,0,0,-1,0,841.92)" d="M16.8 279.73C16.8 281.72 18.412 283.33 20.4 283.33H96C97.988 283.33 99.6 281.72 99.6 279.73V265.33C99.6 263.34 97.988 261.73 96 261.73H20.4C18.412 261.73 16.8 263.34 16.8 265.33Z" fill="#ee0000" fill-rule="evenodd"/>
<path transform="matrix(1,0,0,-1,0,841.92)" stroke-width="1" stroke-linecap="butt" stroke-miterlimit="10" stroke-linejoin="miter" fill="none" stroke="#172c51" d="M16.8 279.73C16.8 281.72 18.412 283.33 20.4 283.33H96C97.988 283.33 99.6 281.72 99.6 279.73V265.33C99.6 263.34 97.988 261.73 96 261.73H20.4C18.412 261.73 16.8 263.34 16.8 265.33Z"/>
<g clip-path="url(#clip_175)">
<g clip-path="url(#clip_176)">
<text xml:space="preserve" transform="matrix(1 0 -0 1 0 841.92)" font-size="9.96" font-family="Calibri" font-weight="bold"><tspan y="-268.61" x="28.2 34.44492 36.84528 40.918924 45.00252 49.92276 53.27928 58.66764 60.918603 69.69336 75.08172 80.47008 85.49988">Discard Model</tspan></text>
</g>
<g clip-path="url(#clip_177)">
<text xml:space="preserve" transform="matrix(1 0 -0 1 0 841.92)" font-size="9.96" font-family="Calibri" font-weight="bold"><tspan y="-268.61" x="88.104"> </tspan></text>
</g>
</g>
<path transform="matrix(1,0,0,-1,0,841.92)" d="M127.8 279.74C127.8 281.73 129.41 283.34 131.4 283.34H207C208.99 283.34 210.6 281.73 210.6 279.74V265.34C210.6 263.35 208.99 261.74 207 261.74H131.4C129.41 261.74 127.8 263.35 127.8 265.34Z" fill="#1be555" fill-rule="evenodd"/>
<path transform="matrix(1,0,0,-1,0,841.92)" stroke-width="1" stroke-linecap="butt" stroke-miterlimit="10" stroke-linejoin="miter" fill="none" stroke="#172c51" d="M127.8 279.74C127.8 281.73 129.41 283.34 131.4 283.34H207C208.99 283.34 210.6 281.73 210.6 279.74V265.34C210.6 263.35 208.99 261.74 207 261.74H131.4C129.41 261.74 127.8 263.35 127.8 265.34Z"/>
<g clip-path="url(#clip_178)">
<g clip-path="url(#clip_179)">
<text xml:space="preserve" transform="matrix(1 0 -0 1 0 841.92)" font-size="9.96" font-family="Calibri" font-weight="bold"><tspan y="-268.61" x="143.3 149.64452 155.0528 160.44115">Good</tspan></text>
</g>
<g clip-path="url(#clip_180)">
<text xml:space="preserve" transform="matrix(1 0 -0 1 0 841.92)" font-size="9.96" font-family="Calibri" font-weight="bold"><tspan y="-268.61" x="165.86"> </tspan></text>
</g>
<g clip-path="url(#clip_181)">
<text xml:space="preserve" transform="matrix(1 0 -0 1 0 841.92)" font-size="9.96" font-family="Calibri" font-weight="bold"><tspan y="-268.61" x="168.14 176.89484 182.28319 187.67156 192.70134">Model</tspan></text>
</g>
<g clip-path="url(#clip_182)">
<text xml:space="preserve" transform="matrix(1 0 -0 1 0 841.92)" font-size="9.96" font-family="Calibri" font-weight="bold"><tspan y="-268.61" x="195.05"> </tspan></text>
</g>
</g>
<path transform="matrix(1,0,0,-1,0,841.92)" d="M117.5 366.1V359.1H116.5V366.1ZM120 360.1 117 354.1 114 360.1Z"/>
<path transform="matrix(1,0,0,-1,0,841.92)" d="M33.5 321.72V288.32H32.5V321.72ZM36 289.32 33 283.32 30 289.32Z"/>
<path transform="matrix(1,0,0,-1,0,841.92)" d="M202.35 321.72V288.32H201.35V321.72ZM204.85 289.32 201.85 283.32 198.85 289.32Z"/>
<path transform="matrix(1,0,0,-1,0,841.92)" d="M165 246.6H114.97L114.92 225.29H115.92L115.97 246.1 115.47 245.6H165ZM112.47 226.42 115.2 220.3 118.46 226.16Z"/>
<path transform="matrix(1,0,0,-1,0,841.92)" stroke-width="1" stroke-linecap="butt" stroke-miterlimit="10" stroke-linejoin="miter" fill="none" stroke="#000000" d="M165.6 246.14V261.74"/>
<g clip-path="url(#clip_183)">
<g clip-path="url(#clip_184)">
<text xml:space="preserve" transform="matrix(1 0 -0 1 0 841.92)" font-size="9.96" font-family="Calibri" font-weight="bold"><tspan y="-294.65" x="35.52 42.12004">No</tspan></text>
</g>
<g clip-path="url(#clip_185)">
<text xml:space="preserve" transform="matrix(1 0 -0 1 0 841.92)" font-size="9.96" font-family="Calibri" font-weight="bold"><tspan y="-294.65" x="47.52"> </tspan></text>
</g>
</g>
<g clip-path="url(#clip_186)">
<g clip-path="url(#clip_187)">
<text xml:space="preserve" transform="matrix(1 0 -0 1 0 841.92)" font-size="9.96" font-family="Calibri" font-weight="bold"><tspan y="-292.25" x="184.34 188.66263 193.69243">Yes</tspan></text>
</g>
<g clip-path="url(#clip_188)">
<text xml:space="preserve" transform="matrix(1 0 -0 1 0 841.92)" font-size="9.96" font-family="Calibri" font-weight="bold"><tspan y="-292.25" x="197.81"> </tspan></text>
</g>
</g>
</g>
</svg>
